<?xml version="1.0" encoding="utf-8"?>
<!-- Generator: Adobe Illustrator 24.2.0, SVG Export Plug-In . SVG Version: 6.00 Build 0)  -->
<svg version="1.1" id="Capa_1" xmlns="http://www.w3.org/2000/svg" xmlns:xlink="http://www.w3.org/1999/xlink" x="0px" y="0px"
	 viewBox="0 0 1244.6 80.5" style="enable-background:new 0 0 1244.6 80.5;" xml:space="preserve">
<style type="text/css">
	.st0{clip-path:url(#SVGID_2_);fill:url(#SVGID_3_);}
	.st1{clip-path:url(#SVGID_5_);fill:url(#SVGID_6_);}
	.st2{clip-path:url(#SVGID_8_);fill:url(#SVGID_9_);}
	.st3{clip-path:url(#SVGID_11_);fill:url(#SVGID_12_);}
	.st4{clip-path:url(#SVGID_14_);fill:url(#SVGID_15_);}
	.st5{fill:#18547C;}
	.st6{fill:url(#SVGID_16_);}
</style>
<g>
	<g>
		<g>
			<g>
				<g>
					<g>
						<defs>
							<ellipse id="SVGID_1_" cx="404.5" cy="23.5" rx="8.7" ry="11.6"/>
						</defs>
						<clipPath id="SVGID_2_">
							<use xlink:href="#SVGID_1_"  style="overflow:visible;"/>
						</clipPath>
						
							<linearGradient id="SVGID_3_" gradientUnits="userSpaceOnUse" x1="373.6198" y1="1626.8109" x2="456.7121" y2="1557.088" gradientTransform="matrix(1 0 0 1 0 -1557.4116)">
							<stop  offset="0" style="stop-color:#FF00A5"/>
							<stop  offset="7.164891e-02" style="stop-color:#EF25BD"/>
							<stop  offset="0.1571" style="stop-color:#DF4BD4"/>
							<stop  offset="0.2424" style="stop-color:#D268E7"/>
							<stop  offset="0.3265" style="stop-color:#C97DF4"/>
							<stop  offset="0.4089" style="stop-color:#C48AFC"/>
							<stop  offset="0.4874" style="stop-color:#C28EFF"/>
							<stop  offset="0.5472" style="stop-color:#BC90FF"/>
							<stop  offset="0.6232" style="stop-color:#AD94FE"/>
							<stop  offset="0.7079" style="stop-color:#939CFC"/>
							<stop  offset="0.799" style="stop-color:#6EA7F9"/>
							<stop  offset="0.8952" style="stop-color:#40B5F6"/>
							<stop  offset="0.9943" style="stop-color:#07C6F2"/>
							<stop  offset="1" style="stop-color:#04C7F2"/>
						</linearGradient>
						<circle class="st0" cx="415.2" cy="34.5" r="54.2"/>
					</g>
				</g>
			</g>
		</g>
	</g>
	<g>
		<g>
			<g>
				<g>
					<g>
						<defs>
							<ellipse id="SVGID_4_" cx="423" cy="23.5" rx="8.7" ry="11.6"/>
						</defs>
						<clipPath id="SVGID_5_">
							<use xlink:href="#SVGID_4_"  style="overflow:visible;"/>
						</clipPath>
						
							<linearGradient id="SVGID_6_" gradientUnits="userSpaceOnUse" x1="373.6198" y1="1626.8109" x2="456.7121" y2="1557.088" gradientTransform="matrix(1 0 0 1 0 -1557.4116)">
							<stop  offset="0" style="stop-color:#FF00A5"/>
							<stop  offset="7.164891e-02" style="stop-color:#EF25BD"/>
							<stop  offset="0.1571" style="stop-color:#DF4BD4"/>
							<stop  offset="0.2424" style="stop-color:#D268E7"/>
							<stop  offset="0.3265" style="stop-color:#C97DF4"/>
							<stop  offset="0.4089" style="stop-color:#C48AFC"/>
							<stop  offset="0.4874" style="stop-color:#C28EFF"/>
							<stop  offset="0.5472" style="stop-color:#BC90FF"/>
							<stop  offset="0.6232" style="stop-color:#AD94FE"/>
							<stop  offset="0.7079" style="stop-color:#939CFC"/>
							<stop  offset="0.799" style="stop-color:#6EA7F9"/>
							<stop  offset="0.8952" style="stop-color:#40B5F6"/>
							<stop  offset="0.9943" style="stop-color:#07C6F2"/>
							<stop  offset="1" style="stop-color:#04C7F2"/>
						</linearGradient>
						<circle class="st1" cx="415.2" cy="34.5" r="54.2"/>
					</g>
				</g>
			</g>
		</g>
	</g>
	<g>
		<g>
			<g>
				<g>
					<g>
						<defs>
							<ellipse id="SVGID_7_" cx="437.3" cy="38.3" rx="6.8" ry="9.1"/>
						</defs>
						<clipPath id="SVGID_8_">
							<use xlink:href="#SVGID_7_"  style="overflow:visible;"/>
						</clipPath>
						
							<linearGradient id="SVGID_9_" gradientUnits="userSpaceOnUse" x1="373.6198" y1="1626.8109" x2="456.7121" y2="1557.088" gradientTransform="matrix(1 0 0 1 0 -1557.4116)">
							<stop  offset="0" style="stop-color:#FF00A5"/>
							<stop  offset="7.164891e-02" style="stop-color:#EF25BD"/>
							<stop  offset="0.1571" style="stop-color:#DF4BD4"/>
							<stop  offset="0.2424" style="stop-color:#D268E7"/>
							<stop  offset="0.3265" style="stop-color:#C97DF4"/>
							<stop  offset="0.4089" style="stop-color:#C48AFC"/>
							<stop  offset="0.4874" style="stop-color:#C28EFF"/>
							<stop  offset="0.5472" style="stop-color:#BC90FF"/>
							<stop  offset="0.6232" style="stop-color:#AD94FE"/>
							<stop  offset="0.7079" style="stop-color:#939CFC"/>
							<stop  offset="0.799" style="stop-color:#6EA7F9"/>
							<stop  offset="0.8952" style="stop-color:#40B5F6"/>
							<stop  offset="0.9943" style="stop-color:#07C6F2"/>
							<stop  offset="1" style="stop-color:#04C7F2"/>
						</linearGradient>
						<circle class="st2" cx="415.2" cy="34.5" r="54.2"/>
					</g>
				</g>
			</g>
		</g>
	</g>
	<g>
		<g>
			<g>
				<g>
					<g>
						<defs>
							<ellipse id="SVGID_10_" cx="391" cy="38.3" rx="6.8" ry="9.1"/>
						</defs>
						<clipPath id="SVGID_11_">
							<use xlink:href="#SVGID_10_"  style="overflow:visible;"/>
						</clipPath>
						
							<linearGradient id="SVGID_12_" gradientUnits="userSpaceOnUse" x1="373.6198" y1="1626.8109" x2="456.7121" y2="1557.088" gradientTransform="matrix(1 0 0 1 0 -1557.4116)">
							<stop  offset="0" style="stop-color:#FF00A5"/>
							<stop  offset="7.164891e-02" style="stop-color:#EF25BD"/>
							<stop  offset="0.1571" style="stop-color:#DF4BD4"/>
							<stop  offset="0.2424" style="stop-color:#D268E7"/>
							<stop  offset="0.3265" style="stop-color:#C97DF4"/>
							<stop  offset="0.4089" style="stop-color:#C48AFC"/>
							<stop  offset="0.4874" style="stop-color:#C28EFF"/>
							<stop  offset="0.5472" style="stop-color:#BC90FF"/>
							<stop  offset="0.6232" style="stop-color:#AD94FE"/>
							<stop  offset="0.7079" style="stop-color:#939CFC"/>
							<stop  offset="0.799" style="stop-color:#6EA7F9"/>
							<stop  offset="0.8952" style="stop-color:#40B5F6"/>
							<stop  offset="0.9943" style="stop-color:#07C6F2"/>
							<stop  offset="1" style="stop-color:#04C7F2"/>
						</linearGradient>
						<circle class="st3" cx="415.2" cy="34.5" r="54.2"/>
					</g>
				</g>
			</g>
		</g>
	</g>
	<g>
		<g>
			<g>
				<g>
					<g>
						<defs>
							<path id="SVGID_13_" d="M430.4,46.6c-0.2-0.2-0.3-0.5-0.4-0.7c-1.9-4.2-7.3-9.1-15.9-9.2h-0.4c-8.5,0-13.8,4.6-15.9,9
								c-0.1,0.1-0.2,0.3-0.4,0.5c-0.2,0.2-0.4,0.5-0.6,0.8c-1.8,2.8-2.7,5.9-2.6,8.8c0.1,3.1,1.4,5.5,3.7,6.9
								c0.9,0.6,1.8,0.8,2.9,0.8c2,0,4-1.1,6.1-2.6c1.4-0.8,2.9-1.7,4.5-2.5c0.2,0,0.9-0.1,2.1-0.1c1.4,0,2.5,0.1,2.7,0.2
								c1.5,0.7,3,1.6,4.3,2.5c2,1.3,4,2.7,6,2.7c0.9,0,1.7-0.2,2.6-0.7c4.5-2.6,5.4-9.6,1.9-15.7C430.8,47.1,430.6,46.9,430.4,46.6
								z"/>
						</defs>
						<clipPath id="SVGID_14_">
							<use xlink:href="#SVGID_13_"  style="overflow:visible;"/>
						</clipPath>
						
							<linearGradient id="SVGID_15_" gradientUnits="userSpaceOnUse" x1="373.6198" y1="1626.8109" x2="456.7121" y2="1557.088" gradientTransform="matrix(1 0 0 1 0 -1557.4116)">
							<stop  offset="0" style="stop-color:#FF00A5"/>
							<stop  offset="7.164891e-02" style="stop-color:#EF25BD"/>
							<stop  offset="0.1571" style="stop-color:#DF4BD4"/>
							<stop  offset="0.2424" style="stop-color:#D268E7"/>
							<stop  offset="0.3265" style="stop-color:#C97DF4"/>
							<stop  offset="0.4089" style="stop-color:#C48AFC"/>
							<stop  offset="0.4874" style="stop-color:#C28EFF"/>
							<stop  offset="0.5472" style="stop-color:#BC90FF"/>
							<stop  offset="0.6232" style="stop-color:#AD94FE"/>
							<stop  offset="0.7079" style="stop-color:#939CFC"/>
							<stop  offset="0.799" style="stop-color:#6EA7F9"/>
							<stop  offset="0.8952" style="stop-color:#40B5F6"/>
							<stop  offset="0.9943" style="stop-color:#07C6F2"/>
							<stop  offset="1" style="stop-color:#04C7F2"/>
						</linearGradient>
						<circle class="st4" cx="415.2" cy="34.5" r="54.2"/>
					</g>
				</g>
			</g>
		</g>
	</g>
</g>
<g>
	<path class="st5" d="M0.5,57.2V23.8c0-2.5,1.2-3.7,3.8-3.7h11.2c6.5,0,11.7,1.8,15.5,5.4s5.7,8.6,5.7,14.9s-1.9,11.3-5.7,15
		c-3.8,3.7-9,5.4-15.5,5.4H4.3C1.8,60.9,0.5,59.7,0.5,57.2z M12.6,30.4v20.4h2.6c3,0,5.3-0.9,6.9-2.7c1.6-1.7,2.5-4.3,2.5-7.7
		c0-3.3-0.8-5.7-2.5-7.5c-1.6-1.7-3.9-2.7-6.8-2.7H12.6z"/>
	<path class="st5" d="M41.4,57.2V23.8c0-2.5,1.2-3.7,3.8-3.7h19c2.5,0,3.7,1.2,3.7,3.7v2.9c0,2.5-1.2,3.7-3.7,3.7H53.3v4.9h7.8
		c2.5,0,3.8,1.2,3.8,3.7v2.9c0,2.5-1.2,3.7-3.8,3.7h-7.8v5.2h11.4c2.5,0,3.8,1.2,3.8,3.7v2.9c0,2.5-1.2,3.7-3.8,3.7H45.1
		C42.6,60.9,41.4,59.7,41.4,57.2z"/>
	<path class="st5" d="M87.1,57.2V23.8c0-2.5,1.2-3.7,3.8-3.7H105c4.1,0,7.4,1.4,9.8,4.2c2.5,2.8,3.8,6.2,3.8,10.4
		c0,4.3-1.2,7.9-3.8,10.6c-2.5,2.8-5.8,4.2-9.8,4.2h-5.9v7.8c0,2.5-1.2,3.7-3.7,3.7h-4.5C88.3,60.9,87.1,59.7,87.1,57.2z M99.1,30.4
		v8.9h3.4c2.7,0,4-1.5,4-4.5c0-1.3-0.3-2.5-0.9-3.2c-0.6-0.8-1.5-1.1-2.8-1.1h-3.7V30.4z"/>
	<path class="st5" d="M122.3,57.2V23.8c0-2.5,1.2-3.7,3.8-3.7h19c2.5,0,3.7,1.2,3.7,3.7v2.9c0,2.5-1.2,3.7-3.7,3.7h-10.8v4.9h7.8
		c2.5,0,3.8,1.2,3.8,3.7v2.9c0,2.5-1.2,3.7-3.8,3.7h-7.8v5.2h11.4c2.5,0,3.8,1.2,3.8,3.7v2.9c0,2.5-1.2,3.7-3.8,3.7H126
		C123.6,60.9,122.3,59.7,122.3,57.2z"/>
	<path class="st5" d="M153.9,57.2V23.8c0-2.5,1.2-3.7,3.8-3.7h4.5c2.5,0,3.7,1.2,3.7,3.7v26.9h12.3c2.5,0,3.8,1.2,3.8,3.7v2.9
		c0,2.5-1.2,3.7-3.8,3.7h-20.4C155.1,60.9,153.9,59.7,153.9,57.2z"/>
	<path class="st5" d="M183.8,45.7V23.8c0-2.5,1.2-3.7,3.7-3.7h4.6c2.5,0,3.7,1.2,3.7,3.7v21.9c0,1.6,0.5,3,1.4,3.8
		c1,0.8,2.3,1.3,4.1,1.3s3.1-0.4,4.1-1.3c1-0.9,1.5-2.1,1.5-3.7v-22c0-2.5,1.2-3.7,3.7-3.7h4.5c2.5,0,3.7,1.2,3.7,3.7v21.9
		c0,4.7-1.6,8.6-4.8,11.5s-7.4,4.4-12.7,4.4s-9.5-1.4-12.8-4.4C185.5,54.2,183.8,50.4,183.8,45.7z"/>
	<path class="st5" d="M239.1,57.2V23.8c0-2.5,1.2-3.7,3.8-3.7h11.2c6.5,0,11.7,1.8,15.5,5.4s5.7,8.6,5.7,14.9s-1.9,11.3-5.7,15
		c-3.8,3.7-9,5.4-15.5,5.4h-11.2C240.3,60.9,239.1,59.7,239.1,57.2z M251,30.4v20.4h2.6c3,0,5.3-0.9,6.9-2.7s2.5-4.3,2.5-7.7
		c0-3.3-0.8-5.7-2.5-7.5s-3.9-2.7-6.8-2.7H251z"/>
	<path class="st5" d="M278.1,40.3c0-5.9,1.9-10.9,5.9-14.9c4.1-4,9.2-5.9,15.5-5.9c6.3,0,11.5,1.9,15.5,5.9c4,4,6,8.9,6,14.9
		c0,6.1-2,11.2-6,15.3c-4.1,4.1-9.2,6-15.5,6c-6.3,0-11.5-2-15.5-6C280,51.5,278.1,46.4,278.1,40.3z M290.5,40.3
		c0,3.1,0.8,5.5,2.6,7.5s3.9,3,6.5,3c2.7,0,4.9-1,6.5-3c1.7-1.9,2.7-4.5,2.7-7.5c0-2.9-0.9-5.2-2.7-7c-1.7-1.9-3.9-2.9-6.5-2.9
		c-2.7,0-4.9,0.9-6.5,2.9C291.3,35,290.5,37.4,290.5,40.3z"/>
	<path class="st5" d="M327.1,57.6c-1.8-1.4-2.1-3.1-0.7-5.1l2.1-3.2c1.2-1.7,3-2,5.1-0.9c0,0,0.1,0,0.2,0.1c0.1,0.1,0.3,0.2,0.5,0.3
		c0.2,0.1,0.5,0.3,0.7,0.4c1.8,1,3.6,1.5,5.3,1.5c2,0,3-0.6,3-1.8c0-0.7-0.4-1.2-1.1-1.7c-0.7-0.5-1.9-1-3.7-1.6s-3.1-1.2-3.9-1.6
		c-5.7-2.6-8.6-6.3-8.6-11.5c0-3.8,1.4-6.9,4.3-9.4c2.9-2.5,6.5-3.7,10.9-3.7c2.1,0,4.2,0.3,6.3,0.8c2.1,0.6,3.8,1.2,5,2.1
		c1.8,1.3,2.2,3.1,1.2,5.1l-1.6,3.3c-0.6,1.1-1.3,1.8-2.3,1.9c-1,0.2-1.9,0-2.8-0.7c-0.5-0.3-1.3-0.7-2.3-1.1
		c-1.3-0.5-2.5-0.7-3.7-0.7c-2,0-3.1,0.6-3.1,1.8c0,0.7,0.5,1.4,1.5,2c1,0.6,2.6,1.3,4.6,1.9c1.7,0.6,3.5,1.4,5,2.2
		c1.8,0.9,3.3,2.1,4.4,4c1.1,1.8,1.7,3.8,1.7,6.1c0,3.7-1.3,6.8-4,9.4c-2.7,2.6-6.3,3.8-10.9,3.8c-2.7,0-5.2-0.4-7.6-1.2
		C330.2,59.6,328.4,58.5,327.1,57.6z"/>
</g>
<g>
	<g>
		<path class="st5" d="M476,58.5V23c0-1.6,0.8-2.3,2.3-2.3h2.7c1.5,0,2.3,0.8,2.3,2.3v31.7h15c1.6,0,2.3,0.8,2.3,2.3v1.6
			c0,1.6-0.8,2.3-2.3,2.3h-20C476.9,60.9,476,60.2,476,58.5z"/>
		<path class="st5" d="M502.4,52.9c0-1.9,0.5-3.7,1.6-5c1.1-1.4,2.6-2.5,4.5-3.1c3.4-1.1,6.9-1.7,10.8-1.7h1.2v-0.7
			c0-3.4-1.8-5.1-5.4-5.1c-1.9,0-4,0.5-6,1.6c-1.5,0.6-2.6,0.3-3.2-0.9l-0.6-1.1c-0.7-1.3-0.4-2.5,0.9-3.2c3.1-1.6,6.2-2.3,9.5-2.3
			c3.8,0,6.6,1,8.8,3.1c2.1,2,3.2,4.9,3.2,8.5v15.7c0,1.6-0.8,2.3-2.3,2.3h-1.9c-1.5,0-2.3-0.8-2.3-2.3v-1.1l0.1-1.2h-0.1
			c-0.4,0.7-0.9,1.3-1.3,1.9c-2,2.3-4.7,3.5-7.8,3.5c-2.7,0-5-0.8-6.8-2.3C503.3,57.6,502.4,55.5,502.4,52.9z M509.5,52.3
			c0,1,0.4,1.9,1.2,2.7c0.8,0.7,1.8,1.1,3.2,1.1c1.9,0,3.5-0.8,4.8-2.3c1.2-1.6,1.8-3.4,1.8-5.2v-1.1h-1.2
			C512.8,47.4,509.5,49,509.5,52.3z"/>
		<path class="st5" d="M540.9,59.1L532,34.7c-0.3-0.8-0.3-1.5,0.1-1.9c0.3-0.5,0.9-0.7,1.8-0.7h2.7c1.3,0,2.2,0.6,2.7,1.9l5.4,15.9
			l1.1,4.4h0.1c0.3-1.7,0.6-3.3,1-4.4l5.4-15.9c0.4-1.3,1.3-1.9,2.7-1.9h2.7c0.9,0,1.5,0.2,1.8,0.7c0.4,0.5,0.4,1.1,0.1,1.9
			l-8.8,24.3c-0.4,1.3-1.2,1.9-2.7,1.9h-4.5C542.1,60.9,541.3,60.3,540.9,59.1z"/>
		<path class="st5" d="M561.4,52.9c0-1.9,0.5-3.7,1.6-5c1.1-1.4,2.6-2.5,4.5-3.1c3.4-1.1,6.9-1.7,10.8-1.7h1.2v-0.7
			c0-3.4-1.8-5.1-5.4-5.1c-1.9,0-4,0.5-6,1.6c-1.5,0.6-2.6,0.3-3.2-0.9l-0.6-1.1c-0.7-1.3-0.4-2.5,0.9-3.2c3.1-1.6,6.2-2.3,9.5-2.3
			c3.8,0,6.6,1,8.8,3.1c2.1,2,3.2,4.9,3.2,8.5v15.7c0,1.6-0.8,2.3-2.3,2.3h-1.9c-1.5,0-2.3-0.8-2.3-2.3v-1.1l0.1-1.2h-0.1
			c-0.4,0.7-0.9,1.3-1.3,1.9c-2,2.3-4.7,3.5-7.8,3.5c-2.7,0-5-0.8-6.8-2.3C562.3,57.6,561.4,55.5,561.4,52.9z M568.6,52.3
			c0,1,0.4,1.9,1.2,2.7c0.8,0.7,1.8,1.1,3.2,1.1c1.9,0,3.5-0.8,4.8-2.3c1.2-1.6,1.8-3.4,1.8-5.2v-1.1h-1.2
			C571.8,47.4,568.6,49,568.6,52.3z"/>
		<path class="st5" d="M591.8,46.5c0-4.5,1.2-8.2,3.7-10.9c2.5-2.8,5.6-4.2,9.5-4.2c2.1,0,4,0.4,5.4,1.2c1.4,0.8,2.3,1.6,2.8,2.5
			l0.3,0.4h0.1c-0.1-0.7-0.1-1.2-0.1-1.6V23c0-1.6,0.8-2.3,2.3-2.3h2.5c1.5,0,2.3,0.8,2.3,2.3v35.5c0,1.6-0.8,2.3-2.3,2.3h-2.1
			c-1.5,0-2.3-0.7-2.3-2.1v-1.1l0.1-1h-0.1c-0.4,0.6-0.8,1.2-1.3,1.7c-1.8,2.1-4.4,3.3-7.8,3.3c-3.9,0-7-1.4-9.4-4.2
			C593,54.7,591.8,51,591.8,46.5z M599,46.5c0,2.8,0.6,4.9,1.9,6.5c1.3,1.6,3.1,2.5,5.2,2.5c2.1,0,3.9-0.8,5.2-2.3
			c1.3-1.6,2-3.9,2-6.7c0-2.5-0.6-4.5-1.8-6.2c-1.2-1.7-3.1-2.7-5.3-2.7c-2,0-3.8,0.8-5.2,2.5C599.6,41.6,599,43.7,599,46.5z"/>
		<path class="st5" d="M657.7,46.5c0,4.4-1.5,8.1-4.7,10.9c-3.1,2.9-6.8,4.3-11.3,4.3c-4.5,0-8.3-1.4-11.3-4.3
			c-3.1-3-4.6-6.5-4.6-10.9s1.5-8,4.6-10.8c3.1-2.9,6.8-4.3,11.3-4.3c4.5,0,8.3,1.4,11.3,4.3C656.2,38.5,657.7,42.1,657.7,46.5z
			 M633.2,46.5c0,2.7,0.8,4.9,2.5,6.5c1.6,1.6,3.7,2.5,6.1,2.5s4.5-0.8,6.1-2.5c1.6-1.7,2.5-3.9,2.5-6.5c0-2.7-0.8-4.8-2.6-6.4
			c-1.6-1.7-3.7-2.6-6-2.6c-2.3,0-4.4,0.8-6,2.6C634,41.7,633.2,43.9,633.2,46.5z"/>
		<path class="st5" d="M675,69l0.5-1.2c0.5-1.1,1.4-1.5,2.6-1.3c0.7,0.3,1.4,0.5,2,0.5c0.9,0,1.8-0.4,2.7-1.1
			c0.8-0.7,1.4-1.6,1.9-2.8l1.1-2.6l-11-25.7c-0.4-0.8-0.4-1.5-0.1-2c0.3-0.5,0.9-0.8,1.8-0.8h3.1c1.3,0,2.2,0.6,2.7,1.9l5.4,14.8
			l1.1,3.9h0.1c0.2-1.1,0.5-2.3,0.9-3.8l5.1-14.8c0.4-1.3,1.3-1.9,2.7-1.9h2.9c0.9,0,1.5,0.2,1.8,0.7c0.4,0.5,0.4,1.1,0.1,1.9
			l-11.9,30.5c-0.9,2.5-2.2,4.4-4.2,5.6c-1.8,1.3-4,1.9-6.3,1.9c-1.2,0-2.6-0.3-4-0.8c-0.7-0.3-1.1-0.7-1.3-1.2S674.7,69.6,675,69z"
			/>
		<path class="st5" d="M718.7,46.5c0-4.3,1.4-7.9,4.3-10.7c3-3,6.7-4.4,11.4-4.4c3.6,0,6.7,0.9,9.5,2.9c1.1,0.8,1.3,1.8,0.4,3.3
			l-0.7,1.1c-0.7,1.1-1.8,1.3-3.2,0.6c-1.7-1.1-3.6-1.7-5.6-1.7c-2.7,0-4.7,0.9-6.3,2.7c-1.6,1.6-2.5,3.8-2.5,6.3
			c0,2.6,0.8,4.7,2.5,6.4c1.6,1.7,3.8,2.7,6.5,2.7c2.2,0,4.4-0.7,6.4-2.2c1.4-0.8,2.6-0.5,3.3,0.7l0.6,1.1c0.7,1.3,0.5,2.3-0.6,3.2
			c-3.1,2.2-6.4,3.4-10.3,3.4c-4.7,0-8.6-1.4-11.4-4.3C720.2,54.5,718.7,50.8,718.7,46.5z"/>
		<path class="st5" d="M780.4,46.5c0,4.4-1.5,8.1-4.7,10.9c-3.1,2.9-6.8,4.3-11.3,4.3c-4.5,0-8.3-1.4-11.3-4.3
			c-3.1-3-4.6-6.5-4.6-10.9s1.5-8,4.6-10.8c3.1-2.9,6.8-4.3,11.3-4.3s8.3,1.4,11.3,4.3C778.8,38.5,780.4,42.1,780.4,46.5z
			 M755.8,46.5c0,2.7,0.8,4.9,2.5,6.5c1.6,1.6,3.7,2.5,6.1,2.5c2.5,0,4.5-0.8,6.1-2.5c1.6-1.7,2.5-3.9,2.5-6.5
			c0-2.7-0.8-4.8-2.6-6.4c-1.6-1.7-3.7-2.6-6-2.6s-4.4,0.8-6,2.6C756.7,41.7,755.8,43.9,755.8,46.5z"/>
		<path class="st5" d="M785.6,58.5V34.3c0-1.6,0.8-2.3,2.3-2.3h2.2c1.6,0,2.3,0.8,2.3,2.3v2.8l-0.2,1.9h0.1c0.6-1.9,1.6-3.7,3.3-5.1
			c1.5-1.4,3.3-2.2,5.2-2.2c1.4,0,2.1,0.8,2.1,2.3v2.2c0,1.6-0.8,2.3-2.5,2.3c-2.5,0-4.4,1-5.8,3.2c-1.3,2-2,4.5-2,7.4v9.3
			c0,1.6-0.8,2.3-2.3,2.3H788C786.4,60.9,785.6,60.2,785.6,58.5z"/>
		<path class="st5" d="M808.5,50.6V38.1H807c-1.5,0-2.3-0.8-2.3-2.3v-0.9c0-1.6,0.8-2.3,2.3-2.3h1.6v-5.9c0-1.6,0.8-2.3,2.3-2.3h2.2
			c1.6,0,2.3,0.8,2.3,2.3v5.9h4.2c1.6,0,2.3,0.8,2.3,2.3v0.9c0,1.6-0.8,2.3-2.3,2.3h-4.3v11.2c0,3.3,1.5,5,4.7,5.4
			c0.9,0.1,1.5,0.3,1.8,0.6s0.5,0.9,0.5,1.7v1.7c0,1.6-1,2.3-3,2.3c-3.1,0-5.6-0.9-7.9-2.7C809.6,56.8,808.5,54.1,808.5,50.6z"/>
		<path class="st5" d="M825.6,46.5c0-4.5,1.3-8.2,4.1-10.9c2.8-2.9,6.2-4.3,10.6-4.3c4,0,7.1,1.3,9.4,3.9c2.2,2.6,3.4,5.9,3.4,9.9
			c0,0.6-0.2,1.2-0.7,1.7c-0.5,0.5-1.1,0.7-1.7,0.7H833c0.2,2.5,1.1,4.4,2.8,5.8c1.6,1.4,3.6,2.1,5.9,2.1c2.1,0,4.3-0.6,6.2-1.8
			c1.4-0.7,2.5-0.4,3.2,0.8l0.7,1.1c0.7,1.3,0.5,2.5-0.8,3.2c-3,1.9-6.2,2.9-9.8,2.9c-4.6,0-8.4-1.4-11.3-4.4
			C827,54.2,825.6,50.7,825.6,46.5z M833.1,43.1H846c0-1.9-0.6-3.5-1.6-4.7c-1.1-1.1-2.5-1.7-4.2-1.7c-1.8,0-3.4,0.6-4.6,1.7
			C834.3,39.6,833.5,41.2,833.1,43.1z"/>
		<path class="st5" d="M872.5,69.9V34.3c0-1.6,0.8-2.3,2.3-2.3h1.8c1.5,0,2.3,0.6,2.3,1.9v1.3l-0.1,1.1h0.1c0.4-0.7,0.8-1.2,1.3-1.7
			c2-2.2,4.7-3.4,8-3.4c3.9,0,7,1.4,9.4,4.2s3.5,6.4,3.5,10.9c0,4.6-1.2,8.3-3.8,11c-2.5,2.8-5.7,4.2-9.5,4.2c-2,0-3.8-0.4-5.2-1.3
			c-1.4-0.9-2.3-1.7-2.9-2.7l-0.3-0.4h-0.1c0.1,0.7,0.2,1.5,0.2,2.5v10.2c0,1.6-0.8,2.3-2.3,2.3h-2.5
			C873.3,72.3,872.5,71.5,872.5,69.9z M879.6,46.6c0,2.5,0.6,4.6,1.9,6.3s3.1,2.7,5.3,2.7c2.1,0,3.9-0.8,5.2-2.5
			c1.3-1.6,2-3.8,2-6.5c0-2.8-0.6-4.9-1.9-6.5c-1.3-1.6-3.1-2.5-5.2-2.5s-3.9,0.8-5.3,2.3C880.2,41.5,879.6,43.7,879.6,46.6z"/>
		<path class="st5" d="M904.6,52.9c0-1.9,0.5-3.7,1.6-5c1.1-1.4,2.6-2.5,4.5-3.1c3.4-1.1,6.9-1.7,10.8-1.7h1.2v-0.7
			c0-3.4-1.8-5.1-5.4-5.1c-1.9,0-4,0.5-6,1.6c-1.5,0.6-2.6,0.3-3.2-0.9l-0.6-1.1c-0.7-1.3-0.4-2.5,0.9-3.2c3.1-1.6,6.2-2.3,9.5-2.3
			c3.8,0,6.6,1,8.8,3.1c2.1,2,3.2,4.9,3.2,8.5v15.7c0,1.6-0.8,2.3-2.3,2.3h-1.9c-1.5,0-2.3-0.8-2.3-2.3v-1.1l0.1-1.2h-0.1
			c-0.4,0.7-0.9,1.3-1.3,1.9c-2,2.3-4.7,3.5-7.8,3.5c-2.7,0-5-0.8-6.8-2.3C905.5,57.6,904.6,55.5,904.6,52.9z M911.7,52.3
			c0,1,0.4,1.9,1.2,2.7c0.8,0.7,1.8,1.1,3.2,1.1c1.9,0,3.5-0.8,4.8-2.3c1.2-1.6,1.8-3.4,1.8-5.2v-1.1h-1.2
			C915,47.4,911.7,49,911.7,52.3z"/>
		<path class="st5" d="M936.6,58.5V34.3c0-1.6,0.8-2.3,2.3-2.3h2.2c1.6,0,2.3,0.8,2.3,2.3v2.8l-0.2,1.9h0.1c0.6-1.9,1.6-3.7,3.3-5.1
			c1.5-1.4,3.3-2.2,5.2-2.2c1.4,0,2.1,0.8,2.1,2.3v2.2c0,1.6-0.8,2.3-2.5,2.3c-2.5,0-4.4,1-5.8,3.2c-1.3,2-2,4.5-2,7.4v9.3
			c0,1.6-0.8,2.3-2.3,2.3h-2.5C937.4,60.9,936.6,60.2,936.6,58.5z"/>
		<path class="st5" d="M955.4,52.9c0-1.9,0.5-3.7,1.6-5c1.1-1.4,2.6-2.5,4.5-3.1c3.4-1.1,6.9-1.7,10.8-1.7h1.2v-0.7
			c0-3.4-1.8-5.1-5.4-5.1c-1.9,0-4,0.5-6,1.6c-1.5,0.6-2.6,0.3-3.2-0.9l-0.6-1.1c-0.7-1.3-0.4-2.5,0.9-3.2c3.1-1.6,6.2-2.3,9.5-2.3
			c3.8,0,6.6,1,8.8,3.1c2.1,2,3.2,4.9,3.2,8.5v15.7c0,1.6-0.8,2.3-2.3,2.3h-1.9c-1.5,0-2.3-0.8-2.3-2.3v-1.1l0.1-1.2H974
			c-0.4,0.7-0.9,1.3-1.3,1.9c-2,2.3-4.7,3.5-7.8,3.5c-2.7,0-5-0.8-6.8-2.3C956.3,57.6,955.4,55.5,955.4,52.9z M962.5,52.3
			c0,1,0.4,1.9,1.2,2.7s1.8,1.1,3.2,1.1c1.9,0,3.5-0.8,4.8-2.3c1.2-1.6,1.8-3.4,1.8-5.2v-1.1h-1.2C965.8,47.4,962.5,49,962.5,52.3z"
			/>
		<path class="st5" d="M1001.6,58.5V34.3c0-1.6,0.8-2.3,2.3-2.3h2.2c1.5,0,2.3,0.8,2.3,2.3v1.7l-0.1,1.3h0.1
			c0.8-1.7,2.1-3.2,3.9-4.4c1.7-1.2,3.6-1.8,5.6-1.8c4.4,0,7.3,1.9,8.5,5.9h0.1c0.9-1.6,2.2-3.1,4-4.2c1.8-1.1,3.8-1.7,5.8-1.7
			c6.3,0,9.5,3.7,9.5,11v16.2c0,1.6-0.8,2.3-2.3,2.3h-2.5c-1.6,0-2.3-0.8-2.3-2.3V43.6c0-2-0.3-3.5-0.8-4.4
			c-0.6-0.9-1.6-1.4-3.2-1.4c-2.3,0-4.1,1-5.4,3c-1.3,1.9-1.9,4.3-1.9,7v10.6c0,1.6-0.8,2.3-2.3,2.3h-2.5c-1.6,0-2.3-0.8-2.3-2.3
			V43.6c0-1.9-0.3-3.5-0.8-4.4c-0.5-0.9-1.5-1.4-3.1-1.4c-2.3,0-4.3,1-5.5,3c-1.3,1.9-1.9,4.3-1.9,7v10.6c0,1.6-0.8,2.3-2.3,2.3
			h-2.5C1002.3,60.9,1001.6,60.2,1001.6,58.5z"/>
		<path class="st5" d="M1050.3,52.9c0-1.9,0.5-3.7,1.6-5c1.1-1.4,2.6-2.5,4.5-3.1c3.4-1.1,6.9-1.7,10.8-1.7h1.2v-0.7
			c0-3.4-1.8-5.1-5.4-5.1c-1.9,0-4,0.5-6,1.6c-1.5,0.6-2.6,0.3-3.2-0.9l-0.6-1.1c-0.7-1.3-0.4-2.5,0.9-3.2c3.1-1.6,6.2-2.3,9.5-2.3
			c3.8,0,6.6,1,8.8,3.1s3.2,4.9,3.2,8.5v15.7c0,1.6-0.8,2.3-2.3,2.3h-1.9c-1.5,0-2.3-0.8-2.3-2.3v-1.1l0.1-1.2h-0.1
			c-0.4,0.7-0.9,1.3-1.3,1.9c-2,2.3-4.7,3.5-7.8,3.5c-2.7,0-5-0.8-6.8-2.3C1051.3,57.6,1050.3,55.5,1050.3,52.9z M1057.5,52.3
			c0,1,0.4,1.9,1.2,2.7s1.8,1.1,3.2,1.1c1.9,0,3.5-0.8,4.8-2.3c1.2-1.6,1.8-3.4,1.8-5.2v-1.1h-1.2
			C1060.8,47.4,1057.5,49,1057.5,52.3z"/>
		<path class="st5" d="M1083.1,58.6c-1.3-0.7-1.5-1.8-0.6-3.3l0.7-1c0.8-1.1,1.9-1.3,3.3-0.6c2.5,1.3,4.6,1.9,6.4,1.9
			c1.2,0,2.2-0.3,3-0.8c0.7-0.5,1.1-1.2,1.1-2.1c0-1.4-1.6-2.7-5-3.8c-1.3-0.4-2.5-0.8-3.3-1.2c-0.8-0.4-1.8-0.9-2.9-1.6
			c-1-0.7-1.8-1.5-2.3-2.7c-0.5-1-0.8-2.2-0.8-3.7c0-2.8,1-4.8,3.2-6.3c2.1-1.5,4.8-2.3,8-2.3c2.9,0,5.5,0.7,8.1,2.1
			c1.2,0.6,1.5,1.7,0.8,3.2l-0.6,1c-0.6,1.2-1.6,1.5-3.2,0.9c-2-0.9-3.9-1.4-5.5-1.4c-2.7,0-3.9,0.9-3.9,2.9c0,1.4,1.6,2.7,5,3.8
			c1.2,0.4,2.3,0.8,3.3,1.1c0.9,0.3,1.8,0.9,3,1.6c1,0.7,1.8,1.5,2.3,2.7c0.5,1,0.8,2.2,0.8,3.7c0,2.6-1,4.7-3.1,6.4
			c-2,1.6-4.7,2.5-8,2.5C1089.3,61.6,1086,60.7,1083.1,58.6z"/>
		<path class="st5" d="M1105.9,46.5c0-4.3,1.4-7.9,4.3-10.7c3-3,6.7-4.4,11.4-4.4c3.6,0,6.7,0.9,9.5,2.9c1.1,0.8,1.3,1.8,0.4,3.3
			l-0.7,1.1c-0.7,1.1-1.8,1.3-3.2,0.6c-1.7-1.1-3.6-1.7-5.6-1.7c-2.7,0-4.7,0.9-6.3,2.7c-1.6,1.6-2.5,3.8-2.5,6.3
			c0,2.6,0.8,4.7,2.5,6.4s3.8,2.7,6.5,2.7c2.2,0,4.4-0.7,6.4-2.2c1.4-0.8,2.6-0.5,3.3,0.7l0.6,1.1c0.7,1.3,0.5,2.3-0.6,3.2
			c-3.1,2.2-6.4,3.4-10.3,3.4c-4.7,0-8.6-1.4-11.4-4.3C1107.3,54.5,1105.9,50.8,1105.9,46.5z"/>
		<path class="st5" d="M1167.5,46.5c0,4.4-1.5,8.1-4.7,10.9c-3.1,2.9-6.8,4.3-11.3,4.3c-4.5,0-8.3-1.4-11.3-4.3
			c-3.1-3-4.6-6.5-4.6-10.9s1.5-8,4.6-10.8c3.1-2.9,6.8-4.3,11.3-4.3c4.5,0,8.3,1.4,11.3,4.3C1166,38.5,1167.5,42.1,1167.5,46.5z
			 M1143,46.5c0,2.7,0.8,4.9,2.5,6.5c1.6,1.6,3.7,2.5,6.1,2.5c2.5,0,4.5-0.8,6.1-2.5c1.6-1.7,2.5-3.9,2.5-6.5c0-2.7-0.8-4.8-2.6-6.4
			c-1.6-1.7-3.7-2.6-6-2.6c-2.3,0-4.4,0.8-6,2.6C1143.8,41.7,1143,43.9,1143,46.5z"/>
		<path class="st5" d="M1174.1,50.6V38.1h-1.5c-1.5,0-2.3-0.8-2.3-2.3v-0.9c0-1.6,0.8-2.3,2.3-2.3h1.6v-5.9c0-1.6,0.8-2.3,2.3-2.3
			h2.2c1.6,0,2.3,0.8,2.3,2.3v5.9h4.2c1.6,0,2.3,0.8,2.3,2.3v0.9c0,1.6-0.8,2.3-2.3,2.3h-4.3v11.2c0,3.3,1.5,5,4.7,5.4
			c0.9,0.1,1.5,0.3,1.8,0.6c0.3,0.3,0.5,0.9,0.5,1.7v1.7c0,1.6-1,2.3-3,2.3c-3.1,0-5.6-0.9-7.9-2.7
			C1175.3,56.8,1174.1,54.1,1174.1,50.6z"/>
		<path class="st5" d="M1191,52.9c0-1.9,0.5-3.7,1.6-5c1.1-1.4,2.6-2.5,4.5-3.1c3.4-1.1,6.9-1.7,10.8-1.7h1.2v-0.7
			c0-3.4-1.8-5.1-5.4-5.1c-1.9,0-4,0.5-6,1.6c-1.5,0.6-2.6,0.3-3.2-0.9l-0.6-1.1c-0.7-1.3-0.4-2.5,0.9-3.2c3.1-1.6,6.2-2.3,9.5-2.3
			c3.8,0,6.6,1,8.8,3.1c2.1,2,3.2,4.9,3.2,8.5v15.7c0,1.6-0.8,2.3-2.3,2.3h-1.9c-1.5,0-2.3-0.8-2.3-2.3v-1.1l0.1-1.2h-0.1
			c-0.4,0.7-0.9,1.3-1.3,1.9c-2,2.3-4.7,3.5-7.8,3.5c-2.7,0-5-0.8-6.8-2.3C1191.9,57.6,1191,55.5,1191,52.9z M1198.1,52.3
			c0,1,0.4,1.9,1.2,2.7s1.8,1.1,3.2,1.1c1.9,0,3.5-0.8,4.8-2.3c1.2-1.6,1.8-3.4,1.8-5.2v-1.1h-1.2
			C1201.4,47.4,1198.1,49,1198.1,52.3z"/>
		<path class="st5" d="M1223.8,58.6c-1.3-0.7-1.5-1.8-0.6-3.3l0.7-1c0.8-1.1,1.9-1.3,3.3-0.6c2.5,1.3,4.6,1.9,6.4,1.9
			c1.2,0,2.2-0.3,3-0.8c0.7-0.5,1.1-1.2,1.1-2.1c0-1.4-1.6-2.7-5-3.8c-1.3-0.4-2.5-0.8-3.3-1.2c-0.8-0.4-1.8-0.9-2.9-1.6
			c-1-0.7-1.8-1.5-2.3-2.7c-0.5-1-0.8-2.2-0.8-3.7c0-2.8,1-4.8,3.2-6.3s4.8-2.3,8-2.3c2.9,0,5.5,0.7,8.1,2.1
			c1.2,0.6,1.5,1.7,0.8,3.2l-0.6,1c-0.6,1.2-1.6,1.5-3.2,0.9c-2-0.9-3.9-1.4-5.5-1.4c-2.7,0-3.9,0.9-3.9,2.9c0,1.4,1.6,2.7,5,3.8
			c1.2,0.4,2.3,0.8,3.3,1.1c0.9,0.3,1.8,0.9,3,1.6c1,0.7,1.8,1.5,2.3,2.7c0.5,1,0.8,2.2,0.8,3.7c0,2.6-1,4.7-3.1,6.4
			c-2,1.6-4.7,2.5-8,2.5C1229.8,61.6,1226.6,60.7,1223.8,58.6z"/>
	</g>
</g>
<linearGradient id="SVGID_16_" gradientUnits="userSpaceOnUse" x1="12.1" y1="-167.0529" x2="1231.9" y2="-167.0529" gradientTransform="matrix(1 0 0 -1 0 82)">
	<stop  offset="0" style="stop-color:#FF00A5"/>
	<stop  offset="7.164891e-02" style="stop-color:#EF25BD"/>
	<stop  offset="0.1571" style="stop-color:#DF4BD4"/>
	<stop  offset="0.2424" style="stop-color:#D268E7"/>
	<stop  offset="0.3265" style="stop-color:#C97DF4"/>
	<stop  offset="0.4089" style="stop-color:#C48AFC"/>
	<stop  offset="0.4874" style="stop-color:#C28EFF"/>
	<stop  offset="0.5472" style="stop-color:#BC90FF"/>
	<stop  offset="0.6232" style="stop-color:#AD94FE"/>
	<stop  offset="0.7079" style="stop-color:#939CFC"/>
	<stop  offset="0.799" style="stop-color:#6EA7F9"/>
	<stop  offset="0.8952" style="stop-color:#40B5F6"/>
	<stop  offset="0.9943" style="stop-color:#07C6F2"/>
	<stop  offset="1" style="stop-color:#04C7F2"/>
</linearGradient>
<rect x="12.1" y="245.9" class="st6" width="1219.8" height="6.4"/>
</svg>
