<?xml version="1.0" encoding="utf-8"?>
<!-- Generator: Adobe Illustrator 24.2.0, SVG Export Plug-In . SVG Version: 6.00 Build 0)  -->
<svg version="1.1" id="a4f32909-a035-490f-bc72-f3acc33ef0f1"
	 xmlns="http://www.w3.org/2000/svg" xmlns:xlink="http://www.w3.org/1999/xlink" x="0px" y="0px" viewBox="0 0 1606.2 1070.8"
	 style="enable-background:new 0 0 1606.2 1070.8;" xml:space="preserve">
<style type="text/css">
	.st0{fill:#805AD5;}
	.st1{opacity:0.3;fill:#3F3D56;}
	.st2{fill:#FFB8B8;}
	.st3{fill:#FFDE63;}
	.st4{fill:#3F3D56;}
	.st5{fill:#E6E6E6;}
	.st6{fill:#2F2E41;}
	.st7{opacity:0.1;enable-background:new    ;}
	.st8{fill:#FF6584;}
	.st9{opacity:0.2;enable-background:new    ;}
</style>
<rect class="st0" width="1606.2" height="1070.8"/>
<g>
	<ellipse class="st1" cx="850.2" cy="958" rx="479.2" ry="53.5"/>
	<path class="st2" d="M1087.8,898.8l8.3,25.5c0,0,39.8,41.1,25.4,52.3c-14.4,11.1-46.7-47.6-46.7-47.6l-6-28.7L1087.8,898.8z"/>
	<path class="st3" d="M1011.5,701.7l12-4c0,0,18.7,5.4,21.4,24.1c2.7,18.7,22.8,113.8,22.8,113.8s8,4,2.7,10.7s26.8,66.9,26.8,66.9
		l-25.4,12c0,0-50.9-53.5-50.9-58.9s1.3-10.7,1.3-16.1s-1.3-5.4,0-9.4c0.9-3.5,1.3-7.1,1.3-10.7l-9.4-21.4L1011.5,701.7z"/>
	<ellipse class="st3" cx="397.9" cy="546.6" rx="121" ry="246.9"/>
	<path class="st4" d="M396.8,549.1c6-107.5,18.2-180.1,18.3-180.8l-2.6-0.4c-0.1,0.7-12.3,73.4-18.4,181.1
		c-5.6,99.3-6.9,249.6,18.4,401.3l2.6-0.4C389.9,798.3,391.2,648.3,396.8,549.1z"/>
	
		<rect x="389.9" y="525.6" transform="matrix(0.8817 -0.4719 0.4719 0.8817 -195.1669 275.6501)" class="st4" width="124.1" height="2.7"/>
	
		<rect x="335.1" y="494.2" transform="matrix(0.4717 -0.8818 0.8818 0.4717 -312.7391 590.6155)" class="st4" width="2.7" height="124.1"/>
	<ellipse class="st5" cx="684.6" cy="397.9" rx="165.6" ry="337.9"/>
	<path class="st4" d="M682.5,401.4c8.3-147.1,24.9-246.5,25.1-247.5l-2.6-0.4c-0.2,1-16.8,100.5-25.1,247.7
		c-7.6,135.9-9.5,341.5,25.1,549l2.6-0.4C673.1,742.5,674.9,537.2,682.5,401.4z"/>
	
		<rect x="673.6" y="369.7" transform="matrix(0.8817 -0.4719 0.4719 0.8817 -85.3396 401.8759)" class="st4" width="169.8" height="2.7"/>
	
		<rect x="599.2" y="326.3" transform="matrix(0.4717 -0.8818 0.8818 0.4717 -45.3469 746.784)" class="st4" width="2.7" height="169.8"/>
	<ellipse class="st5" cx="546.6" cy="741.3" rx="61.9" ry="126.3"/>
	<path class="st4" d="M546.5,746.7l0.4,0.7l55.9-29.9l-1.3-2.4l-54.9,29.4c3-56,9.3-93.5,9.4-94.3l-2.6-0.4
		c-0.1,0.8-7.5,45.4-10.1,110l-55.4-29.7l-1.3,2.4l55.9,29.9l0.7-1.2c-2.1,53.3-0.9,119.9,10.2,186.6l2.6-0.4
		C543.9,874.6,543.6,801.9,546.5,746.7z"/>
	<path class="st6" d="M1027.8,574.6c-21.5-36.7-64.1-38.4-64.1-38.4s-41.5-5.4-68.1,50.5c-24.8,52.1-59,102.3-5.5,114.5l9.7-30.3
		l6,32.6c7.6,0.6,15.3,0.7,22.9,0.4c57.3-1.9,111.9,0.5,110.1-20.2C1036.5,656.1,1048.5,609.9,1027.8,574.6z"/>
	<path class="st6" d="M877.9,868.3c-0.6,3.8-1.5,7.6-2.6,11.3c-1.3,3.6-3.3,7-4.4,10.7c-3.7,11.7,1.4,24.7,9.7,33.7
		c7.1,7.8,16.4,13.3,26.6,15.9c7.5,1.9,15.2,2.2,22.9,2.4c21.3,0.7,43.1,1.4,63.2-5.5c6.4-2.2,12.5-5.1,18.4-8.4
		c1.9-0.9,3.5-2.2,4.8-3.8c1.5-2.2,1.7-5.1,1.7-7.8c0-9.1-1.9-18.1-1.4-27.2c0.2-5,1.2-10.1,0.7-15.1c-1.3-11.6-9.7-21.2-21.1-23.9
		c-5.7-1.2-11.6-0.6-17.5,0c-15.1,1.5-30.3,2.1-45.4,2c-15.5-0.1-30.9-2.5-46.3-2.7c-4.6-0.1-4.5,1.3-5.9,5.8
		C879.8,859.9,878.7,864.1,877.9,868.3z"/>
	<path class="st6" d="M817.2,861c-4.2-1.1-8.5-1.5-12.8-1.4c-9.1,0.6-17.6,5-23.3,12.2c-5.6,7.3-7.9,16.6-6.3,25.7
		c1,4.9,2.7,9.5,5.1,13.9c3.4,6.9,7.4,13.8,13.7,18.3c3.8,2.4,7.8,4.4,12.1,5.8l33,12.5c4.9,1.8,9.7,3.7,14.6,5.4
		c24.6,8.6,50.3,13.7,76.3,15.3c7.9,0.5,16,0.6,23.7-1.2c1.9-0.3,3.6-1.2,4.9-2.6c0.6-1.1,1-2.3,1.1-3.6l2-14.3c0.5-2,0.4-4.1-0.2-6
		c-0.9-2.4-3.3-3.9-5.5-5.2c-21.7-12.6-47-19.5-65.3-36.7c-4.3-4.1-7.9-10.5-13.1-13.3c-5.9-3.1-12.9-4.9-19-7.8
		C844.9,871.6,831.7,864.3,817.2,861z"/>
	<path class="st7" d="M850.2,880.3c11.7,3.7,60.9,29.2,69.3,38.1c-1.1,0.4-39.5-21.3-40.7-21.6c-10.5-3.2-21-6.4-30.9-11
		c-2-0.9-13-5.3-12.5-7.9C836,875.1,848.1,879.6,850.2,880.3z"/>
	<path class="st2" d="M995.7,976.1c0.7,0,1.3-0.1,1.8-0.5c0.5-0.6,0.7-1.4,0.6-2.1l-0.1-19.5c-5.6-2.7-11.8-3.5-17.9-4.4l-28.5-3.8
		c0.7,0.1-4.5,12.4-3.7,14c1.4,2.9,11.9,5.5,14.9,6.8C973.2,971.3,984,976.6,995.7,976.1z"/>
	<path class="st2" d="M906.2,953.9c-5.4,0.9-11.4,1.6-14.9,5.9c-4.4,5.4-2.5,13.4-0.4,20c0.3,1.3,0.9,2.6,1.8,3.6
		c1.4,1.4,3.6,1.6,5.7,1.8c4.9,0.3,10.1,0.6,14.4-1.9c1.9-1.3,3.8-2.7,5.6-4.2c3.2-2.1,6.6-3.7,10.3-4.8c6.7-2.1,13.7-3.6,20.7-4.3
		c2.8-0.1,5.5-0.6,8.2-1.4c2.7-0.9,4.8-3,5.7-5.6c1-3.5-1.1-7.2-3-10.3c-2.4-3.9-5-8-8.7-10.8c-5.3-4.2-7.9-1-13.3,1.7
		C928.2,948.6,917.4,952.1,906.2,953.9z"/>
	<path class="st6" d="M892.1,958.7l-34.2-10.2c-4.1-1.4-8.4-2.3-12.7-2.5c-4.3,0-8.9,1.4-11.7,4.8c-2.7,3.1-3.4,7.4-4.1,11.5
		L828,971c-0.9,4.4-1.2,8.9-0.8,13.4c0.6,4.4,2.9,8.9,6.8,11c4.7,2.6,10.5,1.3,15.8,0.2c10.7-2.2,21.5-3.4,32.4-3.5
		c4.1,0,8.4,0,12-1.9c4.3-2.3,6.9-7.2,7.3-12C902.2,970.7,899.8,961,892.1,958.7z"/>
	<path class="st6" d="M1009.1,949.9c4.4-0.8,8.3-3.3,12.6-4.8c6-2.1,12.5-2.1,18.8-2.1c2.3,0,4.8,0.1,6.7,1.4c2.8,1.9,3.5,5.6,4,9
		l2.9,20.2c0.5,3.8,1.1,7.7,0.2,11.4s-3.4,7.4-7.1,8.3c-4.5,1.2-8.9-1.7-13.1-3.6c-10.6-4.7-22.8-3.5-33.8-7.1
		c-2-0.7-4.2-1.7-5.1-3.7c-0.4-1.1-0.5-2.3-0.4-3.5c0.2-6.5-1.2-15.4,0.8-21.6C997.4,948.3,1004.2,949.9,1009.1,949.9z"/>
	<path class="st6" d="M1081.5,852.8c6.8-1.7,13.9-2.2,20.9-1.4c5.6,0.6,11.4,2.2,15.4,6.1c5,4.8,6.6,12.1,6.7,19
		c0.2,13.7-4.3,27.1-12.8,37.9c-2.1,2.7-4.5,5.1-7.3,7.1c-3,1.9-6.2,3.4-9.5,4.6l-73.9,29.4c-19.4,7.7-38.9,15.5-59.2,20.6
		c-2.3,1.1-5,0.2-6.1-2.1c0,0,0-0.1-0.1-0.1c-6.5-9.3-11.9-19.4-16.2-29.9c-0.4-0.7-0.5-1.5-0.2-2.2c0.3-0.4,0.6-0.7,1.1-0.9
		l52.3-30.3c3.8-2,7.4-4.5,10.6-7.4c2.3-2.2,4.1-4.8,5.5-7.7c1.1-2.3,1.2-7.7,2.6-9.4c1.4-1.7,6-1.8,8.1-2.4c3-0.9,6-2.1,8.9-3.4
		c11.7-5.3,22.1-12.9,33.3-19.1C1067.8,857.5,1074.5,854.7,1081.5,852.8z"/>
	<path class="st7" d="M1051.9,875.4c-9,6.8-20.6,13.1-29.5,20c-3,2.4-53.7,31.1-54.4,34.9c8.3,1.4,61.2-35.9,68.8-39.6
		c7.6-3.7,14.3-9,20.9-14.2c1.7-1.3,8.9-5.3,4-6.8C1058.9,868.9,1053.9,874.1,1051.9,875.4z"/>
	<circle class="st2" cx="961.9" cy="616" r="50.9"/>
	<path class="st2" d="M983.4,658.8c0,0-8,20.1,6.7,28.1c14.7,8-45.5,72.3-45.5,72.3l-26.8-77.6c0,0,22.8-8,18.7-29.4L983.4,658.8z"
		/>
	<path class="st3" d="M949.9,713.7l32.4-35.8l43.9,22.4l-6.7,157.9l-10.7,12c0,0-45.5,40.2-115.1,6.7c0,0-24.1-20.1-22.8-50.9
		c1.3-30.8-2.7-34.8-2.7-34.8l-1.3-108.4l66.1-13L949.9,713.7z"/>
	<path class="st2" d="M801.2,884l-8.3,25.5c0,0-39.8,41.1-25.4,52.3s46.7-47.6,46.7-47.6l6-28.7L801.2,884z"/>
	<path class="st3" d="M877.6,687l-12-4c0,0-18.7,5.4-21.4,24.1c-2.7,18.7-22.8,113.8-22.8,113.8s-8,4-2.7,10.7
		c5.4,6.7-26.8,66.9-26.8,66.9l25.4,12c0,0,50.9-53.5,50.9-58.9c0-5.4-1.3-10.7-1.3-16.1c0-5.4,1.3-5.4,0-9.4
		c-0.9-3.5-1.3-7.1-1.3-10.7l9.4-21.4L877.6,687z"/>
	<polygon class="st6" points="1018.3,571.1 976.3,548.9 918.2,558 906.2,611.5 936.1,610.3 944.4,590.7 944.4,610 958.2,609.5 
		966.3,578.2 971.3,611.5 1020.3,610.5 	"/>
	<path class="st8" d="M720.2,915.4v77.2H484.4c0-42.6,34.6-77.2,77.2-77.2c22.1-6.9,47.7-9.1,75.4-8.4
		C663.2,907.7,691.3,911,720.2,915.4z"/>
	<path class="st4" d="M686.5,975.8h110.9c3.9,0,7,3.1,7,7l0,0l0,0c0,3.9-3.1,7-7,7h0H686.5l0,0V975.8L686.5,975.8z"/>
	<path class="st4" d="M705.7,849.4l29.7-36c1.9-3.9,6.5-5.5,10.4-3.7c2,1,3.5,2.8,4.1,4.9l11.7,41.4L705.7,849.4z"/>
	<path class="st8" d="M669.7,867.7l11.2-45.3c0-4.3,3.5-7.8,7.8-7.8c2.2,0,4.4,1,5.9,2.6l28.5,32.3L669.7,867.7z"/>
	<path class="st8" d="M484.4,992.6h22.5l0,0v47.7c0,12.4-10.1,22.5-22.5,22.5l0,0l0,0l0,0L484.4,992.6L484.4,992.6z"/>
	<path class="st8" d="M682.3,978.6h110.9c3.9,0,7,3.1,7,7l0,0l0,0c0,3.9-3.1,7-7,7l0,0H682.3l0,0V978.6L682.3,978.6z"/>
	<path class="st9" d="M720.2,915.4v76.8c-41.6,4.4-79-25.7-83.4-67.4c-0.6-5.9-0.6-11.9,0.2-17.8C663.2,907.7,691.3,911,720.2,915.4
		z"/>
	<circle class="st8" cx="720.2" cy="916.8" r="75.8"/>
	<ellipse class="st4" cx="793.2" cy="922.5" rx="8.4" ry="19.7"/>
	<ellipse class="st4" cx="772.9" cy="902.1" rx="2.1" ry="4.9"/>
	<ellipse class="st4" cx="788.3" cy="892.3" rx="2.1" ry="4.9"/>
	<path class="st4" d="M713.9,840.2c0,0-4.2-7.3-4.2-11.8"/>
	<path class="st4" d="M715.7,835.5c0,0,2.3-8.1,5.5-11.3"/>
</g>
</svg>
