<svg width="462" height="302" viewBox="0 0 462 302" fill="none" xmlns="http://www.w3.org/2000/svg">
<g id="Group 1">
<path id="almanaque" d="M142.894 109H8.10583C5.95678 108.998 3.89645 108.141 2.37685 106.618C0.85724 105.096 0.00245185 103.031 0 100.878V20.122C0.00245185 17.9687 0.85724 15.9042 2.37685 14.3816C3.89645 12.859 5.95678 12.0025 8.10583 12H142.894C145.043 12.0025 147.104 12.859 148.623 14.3816C150.143 15.9042 150.998 17.9687 151 20.122V100.878C150.998 103.031 150.143 105.096 148.623 106.618C147.104 108.141 145.043 108.998 142.894 109ZM8.10583 13.3923C6.32519 13.3944 4.61808 14.1041 3.35898 15.3657C2.09988 16.6273 1.39162 18.3378 1.38957 20.122V100.878C1.39162 102.662 2.09988 104.373 3.35898 105.634C4.61808 106.896 6.32519 107.606 8.10583 107.608H142.894C144.675 107.606 146.382 106.896 147.641 105.634C148.9 104.373 149.608 102.662 149.61 100.878V20.122C149.608 18.3378 148.9 16.6273 147.641 15.3657C146.382 14.1041 144.675 13.3944 142.894 13.3923H8.10583Z" fill="white"/>
<path id="left-circle" d="M27 30C25.8133 30 24.6533 29.6774 23.6666 29.0731C22.6799 28.4687 21.9109 27.6097 21.4567 26.6048C21.0026 25.5998 20.8838 24.4939 21.1153 23.427C21.3468 22.3601 21.9182 21.3801 22.7574 20.6109C23.5965 19.8417 24.6656 19.3179 25.8295 19.1057C26.9933 18.8935 28.1997 19.0024 29.2961 19.4187C30.3925 19.8349 31.3295 20.5399 31.9888 21.4444C32.6481 22.3488 33 23.4122 33 24.5C32.9982 25.9582 32.3655 27.3562 31.2407 28.3873C30.1158 29.4184 28.5908 29.9984 27 30V30ZM27 20.32C26.0981 20.32 25.2165 20.5652 24.4666 21.0245C23.7167 21.4838 23.1323 22.1366 22.7871 22.9004C22.442 23.6642 22.3517 24.5046 22.5276 25.3155C22.7036 26.1263 23.1379 26.8711 23.7756 27.4557C24.4133 28.0403 25.2258 28.4384 26.1104 28.5997C26.9949 28.761 27.9118 28.6782 28.745 28.3618C29.5783 28.0454 30.2904 27.5097 30.7915 26.8223C31.2926 26.1349 31.56 25.3267 31.56 24.5C31.5586 23.3918 31.0778 22.3293 30.2229 21.5457C29.368 20.7621 28.209 20.3213 27 20.32Z" fill="white"/>
<path id="right-circle" d="M125 30C123.813 30 122.653 29.6774 121.667 29.0731C120.68 28.4687 119.911 27.6097 119.457 26.6048C119.003 25.5998 118.884 24.4939 119.115 23.427C119.347 22.3601 119.918 21.3801 120.757 20.6109C121.596 19.8417 122.666 19.3179 123.829 19.1057C124.993 18.8935 126.2 19.0024 127.296 19.4187C128.392 19.8349 129.33 20.5399 129.989 21.4444C130.648 22.3488 131 23.4122 131 24.5C130.998 25.9582 130.365 27.3562 129.241 28.3873C128.116 29.4184 126.591 29.9984 125 30V30ZM125 20.32C124.098 20.32 123.217 20.5652 122.467 21.0245C121.717 21.4838 121.132 22.1366 120.787 22.9004C120.442 23.6642 120.352 24.5046 120.528 25.3155C120.704 26.1263 121.138 26.8711 121.776 27.4557C122.413 28.0403 123.226 28.4384 124.11 28.5997C124.995 28.761 125.912 28.6782 126.745 28.3618C127.578 28.0454 128.29 27.5097 128.791 26.8223C129.293 26.1349 129.56 25.3267 129.56 24.5C129.559 23.3918 129.078 22.3293 128.223 21.5457C127.368 20.7621 126.209 20.3213 125 20.32V20.32Z" fill="white"/>
<path id="square-1" d="M40.1684 65.5H15.8316C14.9477 65.499 14.1007 65.1487 13.4763 64.5267C12.852 63.9048 12.5011 63.062 12.5 62.1834V47.8166C12.5011 46.938 12.852 46.0952 13.4763 45.4733C14.1006 44.8514 14.9475 44.5011 15.8313 44.5H40.1687C41.0525 44.5011 41.8994 44.8514 42.5237 45.4733C43.1481 46.0953 43.4989 46.9382 43.5 47.8169V62.1831C43.499 63.0618 43.1481 63.9047 42.5237 64.5267C41.8993 65.1487 41.0523 65.499 40.1684 65.5Z" stroke="white"/>
<path id="square-2" d="M88.0487 65.5H62.9513C62.0308 65.4989 61.1517 65.1451 60.5059 64.5213C59.8608 63.8981 59.5012 63.057 59.5 62.1834V47.8166C59.5012 46.943 59.8608 46.1019 60.5059 45.4787C61.1516 44.855 62.0306 44.5011 62.951 44.5H88.049C88.9694 44.5011 89.8484 44.855 90.4941 45.4787C91.1393 46.102 91.4989 46.9432 91.5 47.8169V62.1831C91.4989 63.0568 91.1393 63.898 90.4941 64.5213C89.8483 65.1451 88.9692 65.4989 88.0487 65.5Z" stroke="white"/>
<path id="square-3" d="M109.393 45.3479C109.97 44.8093 110.758 44.5009 111.587 44.5H137.413C138.242 44.5009 139.03 44.8093 139.607 45.3479C140.182 45.8856 140.499 46.607 140.5 47.3516V61.6484C140.499 62.393 140.182 63.1144 139.607 63.6521C139.03 64.1908 138.242 64.4992 137.413 64.5H111.587C110.758 64.4992 109.97 64.1908 109.393 63.6521C108.818 63.1145 108.501 62.3932 108.5 61.6486V47.3514C108.501 46.6068 108.818 45.8855 109.393 45.3479Z" stroke="white"/>
<path id="square-4" d="M40.1684 94.5H15.8316C14.9477 94.499 14.1007 94.1487 13.4763 93.5267C12.852 92.9048 12.5011 92.062 12.5 91.1834V76.8166C12.5011 75.938 12.852 75.0952 13.4763 74.4733C14.1006 73.8514 14.9475 73.5011 15.8313 73.5H40.1687C41.0525 73.5011 41.8994 73.8514 42.5237 74.4733C43.1481 75.0953 43.4989 75.9382 43.5 76.8169V91.1831C43.499 92.0618 43.1481 92.9047 42.5237 93.5267C41.8993 94.1487 41.0523 94.499 40.1684 94.5Z" stroke="white"/>
<path id="square-5" d="M88.0487 94.5H62.9513C62.0308 94.4989 61.1517 94.1451 60.5059 93.5213C59.8608 92.8981 59.5012 92.057 59.5 91.1834V76.8166C59.5012 75.943 59.8608 75.1019 60.5059 74.4787C61.1516 73.855 62.0306 73.5011 62.951 73.5H88.049C88.9694 73.5011 89.8484 73.855 90.4941 74.4787C91.1393 75.102 91.4989 75.9432 91.5 76.8169V91.1831C91.4989 92.0568 91.1393 92.898 90.4941 93.5213C89.8483 94.1451 88.9692 94.4989 88.0487 94.5Z" stroke="white"/>
<path id="square-6" d="M137.929 94.5H112.071C111.114 94.4989 110.203 94.1418 109.536 93.5161C108.869 92.8915 108.501 92.0519 108.5 91.1833V76.8166C108.501 75.9481 108.869 75.1085 109.536 74.4839C110.203 73.8582 111.114 73.5011 112.071 73.5H137.929C138.886 73.5011 139.797 73.8582 140.464 74.4839C141.131 75.1085 141.499 75.9483 141.5 76.817V91.183C141.499 92.0517 141.131 92.8915 140.464 93.5161C139.797 94.1418 138.886 94.4989 137.929 94.5Z" stroke="white"/>
<path id="left-line" d="M26 26C25.4698 25.9995 24.9614 25.8311 24.5865 25.5318C24.2116 25.2325 24.0006 24.8268 24 24.4035V1.59649C24 1.17308 24.2107 0.766997 24.5858 0.467597C24.9609 0.168197 25.4696 0 26 0C26.5304 0 27.0391 0.168197 27.4142 0.467597C27.7893 0.766997 28 1.17308 28 1.59649V24.4035C27.9994 24.8268 27.7884 25.2325 27.4135 25.5318C27.0386 25.8311 26.5302 25.9995 26 26V26Z" fill="white"/>
<path id="right-line" d="M124.5 26C124.102 25.9995 123.721 25.8311 123.44 25.5318C123.159 25.2325 123 24.8268 123 24.4035V1.59649C123 1.17308 123.158 0.766997 123.439 0.467597C123.721 0.168197 124.102 0 124.5 0C124.898 0 125.279 0.168197 125.561 0.467597C125.842 0.766997 126 1.17308 126 1.59649V24.4035C126 24.8268 125.841 25.2325 125.56 25.5318C125.279 25.8311 124.898 25.9995 124.5 26V26Z" fill="white"/>
<path id="check-1" d="M27.1764 60C26.5019 60.0011 25.8453 59.7906 25.3057 59.4002L25.2722 59.3759L18.2261 54.1756C17.5671 53.6881 17.1357 52.968 17.027 52.1737C16.9182 51.3794 17.141 50.5759 17.6463 49.94C18.1515 49.3041 18.8979 48.888 19.7212 48.7831C20.5445 48.6781 21.3773 48.8931 22.0363 49.3805L26.6002 52.7572L37.3849 39.1825C37.635 38.8678 37.9469 38.6036 38.3027 38.4052C38.6586 38.2068 39.0515 38.0779 39.459 38.026C39.8665 37.9741 40.2806 38.0001 40.6776 38.1026C41.0747 38.205 41.447 38.382 41.7732 38.6232L41.7741 38.6239L41.7071 38.7136L41.7759 38.6239C42.434 39.1119 42.8645 39.8318 42.9731 40.6257C43.0816 41.4197 42.8593 42.2227 42.3548 42.8586L29.6697 58.8183C29.3762 59.186 28.9989 59.4836 28.567 59.6879C28.135 59.8922 27.6601 59.9978 27.1791 59.9964L27.1764 60Z" fill="white"/>
<path id="check-3" d="M76.1764 90C75.5019 90.0011 74.8453 89.781 74.3057 89.3729L74.2722 89.3476L67.2261 83.9109C66.5671 83.4012 66.1357 82.6484 66.027 81.8179C65.9182 80.9875 66.141 80.1475 66.6463 79.4827C67.1515 78.818 67.8979 78.3829 68.7212 78.2732C69.5445 78.1635 70.3773 78.3882 71.0363 78.8978L75.6002 82.428L86.3849 68.2362C86.635 67.9072 86.9468 67.6311 87.3027 67.4236C87.6586 67.2162 88.0515 67.0815 88.459 67.0272C88.8665 66.9729 89.2806 67.0001 89.6776 67.1072C90.0747 67.2144 90.4469 67.3993 90.7731 67.6516L90.7741 67.6523L90.7071 67.746L90.7759 67.6523C91.434 68.1624 91.8645 68.9151 91.9731 69.7451C92.0816 70.5751 91.8593 71.4146 91.3548 72.0795L78.6697 88.7646C78.3762 89.149 77.9989 89.4601 77.5669 89.6737C77.135 89.8873 76.6601 89.9977 76.1791 89.9963L76.1764 90Z" fill="white"/>
<path id="check-2" d="M123.568 61C122.867 61.0011 122.185 60.781 121.625 60.3729L121.59 60.3476L114.273 54.9109C113.589 54.4012 113.141 53.6484 113.028 52.8179C112.915 51.9875 113.146 51.1475 113.671 50.4827C114.196 49.818 114.971 49.3829 115.826 49.2732C116.681 49.1635 117.546 49.3882 118.23 49.8978L122.969 53.428L134.169 39.2362C134.429 38.9072 134.752 38.6311 135.122 38.4236C135.492 38.2162 135.9 38.0815 136.323 38.0272C136.746 37.9729 137.176 38.0001 137.588 38.1072C138.001 38.2144 138.387 38.3993 138.726 38.6516L138.727 38.6523L138.657 38.746L138.729 38.6523C139.412 39.1624 139.859 39.9151 139.972 40.7451C140.085 41.5751 139.854 42.4146 139.33 43.0795L126.157 59.7646C125.852 60.149 125.46 60.4601 125.012 60.6737C124.563 60.8873 124.07 60.9977 123.571 60.9963L123.568 61Z" fill="white"/>
<path id="check-human" d="M229.48 105C229.116 105.001 228.763 104.876 228.472 104.646L228.454 104.631L224.66 101.558C224.305 101.27 224.073 100.845 224.015 100.375C223.956 99.906 224.076 99.4312 224.348 99.0555C224.62 98.6797 225.022 98.4338 225.465 98.3718C225.909 98.3098 226.357 98.4368 226.712 98.7249L229.169 100.72L234.976 92.6987C235.111 92.5128 235.279 92.3567 235.471 92.2394C235.662 92.1222 235.874 92.0461 236.093 92.0154C236.313 91.9847 236.536 92.0001 236.749 92.0606C236.963 92.1212 237.164 92.2257 237.339 92.3683L237.34 92.3687L237.304 92.4217L237.341 92.3687C237.695 92.657 237.927 93.0824 237.986 93.5516C238.044 94.0207 237.924 94.4952 237.653 94.871L230.822 104.302C230.664 104.519 230.461 104.695 230.228 104.816C229.996 104.936 229.74 104.999 229.481 104.998L229.48 105Z" fill="white"/>
<path id="check-human_2" d="M229.785 48C229.136 48.001 228.505 47.8001 227.986 47.4274L227.954 47.4043L221.179 42.4403C220.545 41.975 220.131 41.2876 220.026 40.5294C219.921 39.7712 220.136 39.0042 220.621 38.3973C221.107 37.7903 221.825 37.3931 222.617 37.2929C223.408 37.1928 224.209 37.3979 224.843 37.8632L229.231 41.0864L239.601 28.1287C239.841 27.8283 240.141 27.5762 240.483 27.3868C240.826 27.1974 241.203 27.0744 241.595 27.0248C241.987 26.9753 242.385 27.0001 242.767 27.0979C243.149 27.1957 243.507 27.3646 243.82 27.5949L243.821 27.5955L243.757 27.6811L243.823 27.5955C244.456 28.0613 244.87 28.7486 244.974 29.5064C245.078 30.2642 244.865 31.0307 244.38 31.6378L232.182 46.872C231.9 47.223 231.537 47.507 231.122 47.7021C230.707 47.8971 230.25 47.9979 229.788 47.9966L229.785 48Z" fill="white"/>
<path id="right-arm" d="M261.719 181.823C262.606 181.61 263.437 181.199 264.154 180.618C264.871 180.037 265.455 179.302 265.867 178.462C266.279 177.623 266.507 176.701 266.536 175.76C266.565 174.82 266.395 173.884 266.036 173.019L289 119.418L275.863 116L257.421 169.763C256.055 170.482 254.991 171.693 254.432 173.168C253.872 174.643 253.856 176.279 254.386 177.765C254.916 179.252 255.955 180.486 257.306 181.234C258.658 181.981 260.228 182.191 261.719 181.823V181.823Z" fill="#A0616A"/>
<path id="mobile" d="M234.465 127.257L249.252 136.807C249.442 136.932 249.67 137 249.904 137C250.138 137 250.366 136.932 250.555 136.807L254.551 134.07C254.684 133.982 254.793 133.867 254.871 133.734C254.948 133.602 254.992 133.455 254.999 133.305C255.006 133.155 254.976 133.006 254.911 132.868C254.845 132.73 254.747 132.607 254.623 132.509L243.244 123.253C243.095 123.134 242.913 123.053 242.718 123.019C242.523 122.984 242.322 122.998 242.134 123.057L234.73 125.474C234.54 125.538 234.372 125.648 234.246 125.792C234.119 125.937 234.037 126.11 234.01 126.293C233.983 126.476 234.011 126.663 234.091 126.833C234.171 127.003 234.3 127.149 234.465 127.257H234.465Z" fill="#3F3D56"/>
<path id="sreen" d="M235.167 126.952L248.711 135.925C248.78 135.973 248.862 135.999 248.947 136C249.032 136.001 249.116 135.976 249.185 135.929L252.837 133.363C252.879 133.335 252.914 133.3 252.941 133.259C252.968 133.218 252.987 133.173 252.995 133.126C253.003 133.079 253.001 133.03 252.99 132.984C252.978 132.937 252.957 132.893 252.927 132.854C252.91 132.833 252.891 132.814 252.87 132.797L242.438 124.092C242.384 124.048 242.318 124.019 242.248 124.006C242.177 123.994 242.105 124 242.037 124.022L235.259 126.292C235.191 126.316 235.131 126.358 235.086 126.411C235.041 126.465 235.013 126.529 235.003 126.596C234.994 126.664 235.004 126.732 235.033 126.795C235.062 126.858 235.108 126.912 235.167 126.952V126.952Z" fill="white"/>
<path id="right-ankle" d="M288.999 281L282.223 280.999L279 253L289 253.001L288.999 281Z" fill="#A0616A"/>
<path id="right-feet" d="M291 288L268 287.999V287.684C268 286.413 268.232 285.153 268.681 283.978C269.131 282.803 269.791 281.736 270.622 280.836C271.453 279.937 272.44 279.224 273.526 278.737C274.612 278.25 275.777 278 276.952 278H276.953L291 278.001L291 288Z" fill="#3F3D56"/>
<path id="left-ankle" d="M312.999 281L306.223 280.999L303 253L313 253.001L312.999 281Z" fill="#A0616A"/>
<path id="left-feet" d="M315 288L292 287.999V287.684C292 286.413 292.232 285.153 292.681 283.978C293.131 282.803 293.791 281.736 294.622 280.836C295.453 279.937 296.44 279.224 297.526 278.737C298.612 278.25 299.777 278 300.952 278H300.953L315 278.001L315 288Z" fill="#3F3D56"/>
<path id="legs" d="M312.977 273C312.911 273 312.845 272.998 312.778 272.993L304.39 272.379C303.815 272.334 303.27 272.108 302.834 271.734C302.399 271.36 302.097 270.858 301.971 270.301L287.406 191.213C287.358 190.994 287.228 190.802 287.042 190.675C286.855 190.547 286.627 190.495 286.404 190.528C286.18 190.56 285.977 190.676 285.836 190.851C285.695 191.026 285.627 191.247 285.644 191.47L290.816 269.393C290.845 269.757 290.798 270.124 290.677 270.469C290.556 270.814 290.364 271.131 290.113 271.399C289.862 271.667 289.558 271.881 289.22 272.027C288.882 272.174 288.516 272.249 288.147 272.249H281.759C281.22 272.25 280.694 272.089 280.249 271.789C279.804 271.488 279.461 271.062 279.265 270.566C263.2 228.95 269.017 147.409 269.064 146.589L269.659 146L301.656 151.465L301.723 151.53C312.656 159.474 317.387 252.5 315.649 270.196C315.638 270.948 315.358 271.671 314.858 272.237C314.357 272.726 313.681 273 312.977 273V273Z" fill="#CCCCCC"/>
<path id="Vector" d="M273 99C281.284 99 288 92.0604 288 83.5C288 74.9396 281.284 68 273 68C264.716 68 258 74.9396 258 83.5C258 92.0604 264.716 99 273 99Z" fill="#A0616A"/>
<path id="trunk" d="M306.38 165C306.234 165 306.089 164.985 305.946 164.956L269.188 160.201C267.872 159.934 266.933 158.518 267.004 156.907L270.522 137.33C265.86 131.456 270.265 116.285 273.113 112.449L272.012 109.443C271.728 108.663 271.711 107.809 271.963 107.018C272.179 106.273 272.676 105.643 273.347 105.262L288.265 97.2718C289.588 96.5632 291.139 97.2883 291.725 98.8863L294.65 106.867L294.606 106.891C301.61 110.675 307.817 114.42 303.155 134.393L309 161.977C308.98 162.846 308.633 163.676 308.028 164.296C307.591 164.739 306.999 164.991 306.38 165Z" fill="white"/>
<path id="left-arm" d="M254.284 132.922C254.519 133.153 254.736 133.402 254.933 133.669L283.778 131.587L286.873 125L297 128.579L292.607 140.796C292.252 141.783 291.6 142.623 290.749 143.19C289.898 143.757 288.894 144.021 287.888 143.941L255.087 141.343C254.361 142.396 253.345 143.194 252.174 143.629C251.003 144.065 249.733 144.118 248.533 143.781C247.333 143.445 246.259 142.734 245.454 141.744C244.65 140.755 244.153 139.533 244.03 138.241C243.907 136.949 244.163 135.649 244.765 134.513C245.366 133.377 246.285 132.459 247.398 131.882C248.511 131.304 249.766 131.094 250.996 131.28C252.226 131.466 253.373 132.038 254.284 132.922V132.922Z" fill="#A0616A"/>
<path id="Vector_2" d="M282.213 129.89C282.058 129.524 281.986 129.129 282.002 128.733C282.018 128.337 282.121 127.948 282.305 127.595L288.71 115.242C289.366 113.318 290.776 111.726 292.632 110.815C294.488 109.905 296.638 109.75 298.611 110.385C300.583 111.02 302.217 112.393 303.155 114.203C304.093 116.013 304.257 118.111 303.613 120.039L301.146 133.72C301.075 134.11 300.919 134.481 300.689 134.808C300.458 135.134 300.158 135.408 299.81 135.611C299.461 135.814 299.072 135.941 298.668 135.984C298.264 136.027 297.856 135.984 297.471 135.859L283.933 131.458C283.548 131.333 283.195 131.128 282.898 130.857C282.601 130.587 282.367 130.257 282.213 129.89Z" fill="white"/>
<path id="floor" d="M461.285 288H0.71517C0.525495 288 0.343599 287.842 0.209479 287.561C0.0753584 287.279 0 286.898 0 286.5C0 286.102 0.0753584 285.721 0.209479 285.439C0.343599 285.158 0.525495 285 0.71517 285H461.285C461.474 285 461.656 285.158 461.791 285.439C461.925 285.721 462 286.102 462 286.5C462 286.898 461.925 287.279 461.791 287.561C461.656 287.842 461.474 288 461.285 288Z" fill="white"/>
<path id="Vector_3" d="M282 72C288.627 72 294 66.8513 294 60.5C294 54.1487 288.627 49 282 49C275.373 49 270 54.1487 270 60.5C270 66.8513 275.373 72 282 72Z" fill="#3F3D56"/>
<path id="Vector_4" d="M259.762 85.4318C258.597 85.5514 257.359 85.6591 256.311 85.1506C255.751 84.8414 255.273 84.4081 254.917 83.8858C254.561 83.3635 254.337 82.7669 254.263 82.1445C252.042 67.7942 264.589 68.9746 266.073 68.3531C267.071 67.9353 267.806 67.0944 268.697 66.4908C270.647 65.1709 273.177 65.0744 275.553 65.0245C278.373 64.9654 281.295 64.9247 283.883 66.015C286.21 67.0755 288.144 68.8089 289.42 70.9785C290.683 73.1389 291.608 75.4699 292.166 77.895C292.883 80.6694 293.371 83.6043 292.632 86.3735C292.023 88.4784 290.752 90.3452 288.997 91.7127C287.243 93.0802 285.092 93.8799 282.847 94C283.81 90.6926 281.708 87.026 278.59 85.4074C276.074 84.2039 273.211 83.8724 270.475 84.4676C268.7 84.8173 266.901 85.0353 265.092 85.1196C263.317 85.1842 261.186 85.2854 259.762 85.4318Z" fill="#3F3D56"/>
<path id="tree" d="M404 2C411.596 2 418.976 6.53766 425.835 14.1198C432.678 21.6853 438.877 32.1471 444.102 43.666C454.558 66.7199 461 93.7433 461 109.668C460.989 124.88 454.977 139.463 444.288 150.213C433.599 160.963 419.108 167 404 167C388.892 167 374.401 160.963 363.712 150.213C353.023 139.463 347.012 124.88 347 109.669C347 93.7437 353.442 66.7201 363.899 43.6659C369.123 32.1471 375.322 21.6853 382.165 14.1198C389.024 6.53766 396.404 2 404 2Z" stroke="white" stroke-width="2"/>
<path id="2" d="M404.5 286C404.367 286 404.24 285.93 404.146 285.805C404.053 285.68 404 285.511 404 285.335V101.665C404 101.489 404.053 101.32 404.146 101.195C404.24 101.07 404.367 101 404.5 101C404.633 101 404.76 101.07 404.854 101.195C404.947 101.32 405 101.489 405 101.665V285.335C405 285.511 404.947 285.68 404.854 285.805C404.76 285.93 404.633 286 404.5 286V286Z" fill="white"/>
<path id="1" d="M404.331 127C404.235 127 404.14 126.98 404.053 126.94C403.966 126.9 403.888 126.842 403.825 126.77L370.163 88.1023C370.047 87.9686 369.989 87.7947 370.002 87.6186C370.015 87.4425 370.097 87.2787 370.231 87.163C370.365 87.0474 370.539 86.9893 370.716 87.0016C370.893 87.0139 371.058 87.0955 371.174 87.2286L404.837 125.896C404.921 125.993 404.975 126.112 404.993 126.238C405.011 126.365 404.993 126.494 404.94 126.61C404.886 126.726 404.801 126.825 404.693 126.894C404.585 126.963 404.459 127 404.331 127Z" fill="white"/>
<path id="3" d="M404.654 150C404.525 150 404.398 149.96 404.291 149.884C404.183 149.809 404.099 149.702 404.05 149.576C404 149.451 403.987 149.312 404.013 149.179C404.038 149.046 404.1 148.924 404.191 148.828L422.884 129.201C422.944 129.137 423.016 129.087 423.096 129.052C423.175 129.018 423.26 129 423.346 129C423.432 129 423.517 129.018 423.596 129.052C423.676 129.087 423.748 129.137 423.808 129.201C423.869 129.265 423.917 129.341 423.95 129.424C423.983 129.507 424 129.597 424 129.687C424 129.777 423.983 129.866 423.95 129.949C423.917 130.033 423.869 130.108 423.808 130.172L405.116 149.799C405.056 149.863 404.984 149.913 404.904 149.948C404.825 149.982 404.74 150 404.654 150Z" fill="white"/>
<path id="4" d="M404.654 224C404.525 224 404.398 223.96 404.291 223.884C404.183 223.809 404.099 223.702 404.05 223.576C404 223.451 403.987 223.313 404.013 223.179C404.038 223.046 404.1 222.924 404.191 222.828L422.884 203.201C423.006 203.072 423.173 203 423.346 203C423.519 203 423.686 203.072 423.808 203.201C423.931 203.33 424 203.505 424 203.687C424 203.869 423.931 204.043 423.808 204.172L405.116 223.799C405.056 223.863 404.984 223.913 404.904 223.948C404.825 223.982 404.74 224 404.654 224V224Z" fill="white"/>
<path id="patita" d="M98 282H124.333C124.552 282 124.769 282.039 124.971 282.114C125.173 282.19 125.357 282.3 125.512 282.439C125.667 282.579 125.789 282.744 125.873 282.926C125.957 283.108 126 283.303 126 283.5V283.5C126 283.898 125.824 284.279 125.512 284.561C125.199 284.842 124.775 285 124.333 285H98V282Z" fill="#3F3D56"/>
<path id="oreja-2" d="M103 252.317L109.902 243.13C110.061 242.765 110.317 242.463 110.636 242.262C110.956 242.062 111.323 241.973 111.69 242.007C112.057 242.042 112.405 242.198 112.689 242.455C112.972 242.713 113.178 243.059 113.278 243.447L116 254L103 252.317Z" fill="#3F3D56"/>
<path id="oreeja-1" d="M94 256L96.7368 245.762C96.7368 245.404 96.8544 245.055 97.074 244.76C97.2935 244.466 97.6046 244.24 97.9659 244.114C98.3271 243.987 98.7214 243.966 99.0963 244.052C99.4711 244.138 99.8088 244.328 100.064 244.596L107 251.879L94 256Z" fill="white"/>
<path id="cola" d="M50 285H56V296.56C56 297.274 55.8448 297.982 55.5433 298.642C55.2418 299.302 54.7998 299.902 54.2426 300.407C53.6855 300.912 53.0241 301.313 52.2961 301.586C51.5682 301.859 50.7879 302 50 302V302V285L50 285Z" fill="white"/>
<path id="patita-2" d="M97 282H123.333C123.552 282 123.769 282.052 123.971 282.152C124.173 282.253 124.357 282.4 124.512 282.586C124.667 282.771 124.789 282.992 124.873 283.235C124.957 283.477 125 283.737 125 284C125 284.263 124.957 284.523 124.873 284.765C124.789 285.008 124.667 285.228 124.512 285.414C124.357 285.6 124.173 285.747 123.971 285.848C123.769 285.948 123.552 286 123.333 286H97V282Z" fill="white"/>
<g id="cat-body">
<path d="M106 286H50C50 281.138 51.9315 276.475 55.3697 273.036C58.8079 269.598 63.471 267.667 68.3333 267.667C78.5369 264.486 91.8471 265.507 106 267.667V286Z" fill="white"/>
<path d="M106 286C115.941 286 124 277.941 124 268C124 258.059 115.941 250 106 250C96.0589 250 88 258.059 88 268C88 277.941 96.0589 286 106 286Z" fill="white"/>
</g>
<path id="nariz" d="M123 274C124.105 274 125 271.985 125 269.5C125 267.015 124.105 265 123 265C121.895 265 121 267.015 121 269.5C121 271.985 121.895 274 123 274Z" fill="#3F3D56"/>
<path id="eye-1" d="M118.5 266C118.776 266 119 265.328 119 264.5C119 263.672 118.776 263 118.5 263C118.224 263 118 263.672 118 264.5C118 265.328 118.224 266 118.5 266Z" fill="#3F3D56"/>
<path id="eye-2" d="M122.5 263C122.776 263 123 262.552 123 262C123 261.448 122.776 261 122.5 261C122.224 261 122 261.448 122 262C122 262.552 122.224 263 122.5 263Z" fill="#3F3D56"/>
<path id="Vector_5" d="M105 250C105 250 104 248.137 104 247Z" fill="#3F3D56"/>
<path id="Vector_6" d="M105 249C105 249 105.418 246.833 106 246Z" fill="#3F3D56"/>
</g>
</svg>
