<?xml version="1.0" encoding="utf-8"?>
<!-- Generator: Adobe Illustrator 24.2.0, SVG Export Plug-In . SVG Version: 6.00 Build 0)  -->
<svg version="1.1" id="Capa_1" xmlns="http://www.w3.org/2000/svg" xmlns:xlink="http://www.w3.org/1999/xlink" x="0px" y="0px"
	 viewBox="0 0 511.2 505.5" style="enable-background:new 0 0 511.2 505.5;" xml:space="preserve">
<style type="text/css">
	.st0{fill:url(#SVGID_1_);}
	.st1{fill:#FFFFFF;}
	.st2{fill:none;}
	.st3{font-family:'ArialMT';}
	.st4{font-size:12px;}
	.st5{fill:none;stroke:url(#SVGID_2_);stroke-width:11.6389;stroke-miterlimit:10;}
	.st6{clip-path:url(#SVGID_4_);fill:url(#SVGID_5_);}
	.st7{clip-path:url(#SVGID_7_);fill:url(#SVGID_8_);}
	.st8{clip-path:url(#SVGID_10_);fill:url(#SVGID_11_);}
	.st9{clip-path:url(#SVGID_13_);fill:url(#SVGID_14_);}
	.st10{enable-background:new    ;}
	.st11{fill:#18547C;}
	.st12{clip-path:url(#SVGID_16_);fill:url(#SVGID_17_);}
</style>
<text class="st3 st4"> </text>
<text class="st3 st4"> </text>
<text class="st3 st4"> </text>
<g>
	<linearGradient id="SVGID_1_" gradientUnits="userSpaceOnUse" x1="73.8186" y1="405.3123" x2="437.4167" y2="100.2171">
		<stop  offset="0" style="stop-color:#FF00A5"/>
		<stop  offset="7.164891e-02" style="stop-color:#EF25BD"/>
		<stop  offset="0.1571" style="stop-color:#DF4BD4"/>
		<stop  offset="0.2424" style="stop-color:#D268E7"/>
		<stop  offset="0.3265" style="stop-color:#C97DF4"/>
		<stop  offset="0.4089" style="stop-color:#C48AFC"/>
		<stop  offset="0.4874" style="stop-color:#C28EFF"/>
		<stop  offset="0.5472" style="stop-color:#BC90FF"/>
		<stop  offset="0.6232" style="stop-color:#AD94FE"/>
		<stop  offset="0.7079" style="stop-color:#939CFC"/>
		<stop  offset="0.799" style="stop-color:#6EA7F9"/>
		<stop  offset="0.8952" style="stop-color:#40B5F6"/>
		<stop  offset="0.9943" style="stop-color:#07C6F2"/>
		<stop  offset="1" style="stop-color:#04C7F2"/>
	</linearGradient>
	<circle style="fill:none;stroke:url(#SVGID_1_);stroke-width:11.6389;stroke-miterlimit:10;" cx="255.6" cy="252.8" r="231.5"/>
	<g>
		<g>
			<g>
				<defs>
					<ellipse id="SVGID_3_" cx="214.6" cy="205.7" rx="37.1" ry="49.8"/>
				</defs>
				<clipPath id="SVGID_2_">
					<use xlink:href="#SVGID_3_"  style="overflow:visible;"/>
				</clipPath>
				<linearGradient id="SVGID_4_" gradientUnits="userSpaceOnUse" x1="82.8157" y1="401.5717" x2="437.4979" y2="103.9578">
					<stop  offset="0" style="stop-color:#FF00A5"/>
					<stop  offset="7.164891e-02" style="stop-color:#EF25BD"/>
					<stop  offset="0.1571" style="stop-color:#DF4BD4"/>
					<stop  offset="0.2424" style="stop-color:#D268E7"/>
					<stop  offset="0.3265" style="stop-color:#C97DF4"/>
					<stop  offset="0.4089" style="stop-color:#C48AFC"/>
					<stop  offset="0.4874" style="stop-color:#C28EFF"/>
					<stop  offset="0.5472" style="stop-color:#BC90FF"/>
					<stop  offset="0.6232" style="stop-color:#AD94FE"/>
					<stop  offset="0.7079" style="stop-color:#939CFC"/>
					<stop  offset="0.799" style="stop-color:#6EA7F9"/>
					<stop  offset="0.8952" style="stop-color:#40B5F6"/>
					<stop  offset="0.9943" style="stop-color:#07C6F2"/>
					<stop  offset="1" style="stop-color:#04C7F2"/>
				</linearGradient>
				<circle style="clip-path:url(#SVGID_2_);fill:url(#SVGID_4_);" cx="260.2" cy="252.8" r="231.5"/>
			</g>
		</g>
	</g>
	<g>
		<g>
			<g>
				<defs>
					<ellipse id="SVGID_6_" cx="293.6" cy="205.7" rx="37.1" ry="49.8"/>
				</defs>
				<clipPath id="SVGID_5_">
					<use xlink:href="#SVGID_6_"  style="overflow:visible;"/>
				</clipPath>
				<linearGradient id="SVGID_7_" gradientUnits="userSpaceOnUse" x1="82.8157" y1="401.5717" x2="437.4979" y2="103.9578">
					<stop  offset="0" style="stop-color:#FF00A5"/>
					<stop  offset="7.164891e-02" style="stop-color:#EF25BD"/>
					<stop  offset="0.1571" style="stop-color:#DF4BD4"/>
					<stop  offset="0.2424" style="stop-color:#D268E7"/>
					<stop  offset="0.3265" style="stop-color:#C97DF4"/>
					<stop  offset="0.4089" style="stop-color:#C48AFC"/>
					<stop  offset="0.4874" style="stop-color:#C28EFF"/>
					<stop  offset="0.5472" style="stop-color:#BC90FF"/>
					<stop  offset="0.6232" style="stop-color:#AD94FE"/>
					<stop  offset="0.7079" style="stop-color:#939CFC"/>
					<stop  offset="0.799" style="stop-color:#6EA7F9"/>
					<stop  offset="0.8952" style="stop-color:#40B5F6"/>
					<stop  offset="0.9943" style="stop-color:#07C6F2"/>
					<stop  offset="1" style="stop-color:#04C7F2"/>
				</linearGradient>
				<circle style="clip-path:url(#SVGID_5_);fill:url(#SVGID_7_);" cx="260.2" cy="252.8" r="231.5"/>
			</g>
		</g>
	</g>
	<g>
		<g>
			<g>
				<defs>
					<ellipse id="SVGID_9_" cx="354.5" cy="268.7" rx="29.2" ry="38.8"/>
				</defs>
				<clipPath id="SVGID_8_">
					<use xlink:href="#SVGID_9_"  style="overflow:visible;"/>
				</clipPath>
				<linearGradient id="SVGID_10_" gradientUnits="userSpaceOnUse" x1="82.8157" y1="401.5717" x2="437.4979" y2="103.9578">
					<stop  offset="0" style="stop-color:#FF00A5"/>
					<stop  offset="7.164891e-02" style="stop-color:#EF25BD"/>
					<stop  offset="0.1571" style="stop-color:#DF4BD4"/>
					<stop  offset="0.2424" style="stop-color:#D268E7"/>
					<stop  offset="0.3265" style="stop-color:#C97DF4"/>
					<stop  offset="0.4089" style="stop-color:#C48AFC"/>
					<stop  offset="0.4874" style="stop-color:#C28EFF"/>
					<stop  offset="0.5472" style="stop-color:#BC90FF"/>
					<stop  offset="0.6232" style="stop-color:#AD94FE"/>
					<stop  offset="0.7079" style="stop-color:#939CFC"/>
					<stop  offset="0.799" style="stop-color:#6EA7F9"/>
					<stop  offset="0.8952" style="stop-color:#40B5F6"/>
					<stop  offset="0.9943" style="stop-color:#07C6F2"/>
					<stop  offset="1" style="stop-color:#04C7F2"/>
				</linearGradient>
				<circle style="clip-path:url(#SVGID_8_);fill:url(#SVGID_10_);" cx="260.2" cy="252.8" r="231.5"/>
			</g>
		</g>
	</g>
	<g>
		<g>
			<g>
				<defs>
					<ellipse id="SVGID_12_" cx="156.8" cy="268.7" rx="29.2" ry="38.8"/>
				</defs>
				<clipPath id="SVGID_11_">
					<use xlink:href="#SVGID_12_"  style="overflow:visible;"/>
				</clipPath>
				<linearGradient id="SVGID_13_" gradientUnits="userSpaceOnUse" x1="82.8157" y1="401.5717" x2="437.4979" y2="103.9578">
					<stop  offset="0" style="stop-color:#FF00A5"/>
					<stop  offset="7.164891e-02" style="stop-color:#EF25BD"/>
					<stop  offset="0.1571" style="stop-color:#DF4BD4"/>
					<stop  offset="0.2424" style="stop-color:#D268E7"/>
					<stop  offset="0.3265" style="stop-color:#C97DF4"/>
					<stop  offset="0.4089" style="stop-color:#C48AFC"/>
					<stop  offset="0.4874" style="stop-color:#C28EFF"/>
					<stop  offset="0.5472" style="stop-color:#BC90FF"/>
					<stop  offset="0.6232" style="stop-color:#AD94FE"/>
					<stop  offset="0.7079" style="stop-color:#939CFC"/>
					<stop  offset="0.799" style="stop-color:#6EA7F9"/>
					<stop  offset="0.8952" style="stop-color:#40B5F6"/>
					<stop  offset="0.9943" style="stop-color:#07C6F2"/>
					<stop  offset="1" style="stop-color:#04C7F2"/>
				</linearGradient>
				<circle style="clip-path:url(#SVGID_11_);fill:url(#SVGID_13_);" cx="260.2" cy="252.8" r="231.5"/>
			</g>
		</g>
	</g>
	<g>
		<g class="st10">
			<path class="st11" d="M70,293.4l22.1-4.7c1.6-0.3,2.6,0.3,3,2l0.6,3c0.3,1.6-0.3,2.6-1.9,3l-17.8,3.8l1.7,8.1
				c0.4,1.7-0.3,2.7-1.9,3l-1.9,0.4c-1.6,0.3-2.6-0.3-3-2l-2.9-13.5C67.8,294.7,68.4,293.7,70,293.4z"/>
		</g>
		<g class="st10">
			<path class="st11" d="M77.1,311.2c1.4-0.5,2.8-0.3,4.1,0.4c2.3,1.4,4.2,4,5.5,8l0.1,0.4l0.6-0.2c0.8-0.3,0.9-1.1,0.5-2.4
				c-0.3-0.9-0.9-1.9-1.7-2.8c-1.1-1.3-1.1-2.5,0-3.6l0.9-0.9c1.3-1.2,2.4-1.2,3.5-0.1c1.6,1.8,2.8,3.8,3.6,6c0.9,2.7,0.9,5.1,0,7.2
				c-0.9,2.1-2.5,3.5-5,4.3l-9.1,3c-1.6,0.5-2.6,0-3.2-1.6l-0.7-2.2c-0.5-1.5,0.1-2.6,1.7-3.2l0-0.1c-2.4-0.6-4-2.1-4.7-4.4
				c-0.6-1.8-0.5-3.5,0.2-5C74.2,312.7,75.4,311.7,77.1,311.2z M80,317.9c-0.3,0.1-0.6,0.3-0.7,0.7c-0.2,0.3-0.2,0.7,0,1.2
				c0.2,0.7,0.7,1.2,1.3,1.5c0.6,0.3,1.3,0.4,2,0.1l0.4-0.1l-0.1-0.4c-0.4-1.1-0.8-1.9-1.3-2.5C81,317.9,80.5,317.7,80,317.9z"/>
		</g>
		<g class="st10">
			<path class="st11" d="M82.5,337.1L94,326.4c0.7-0.6,1.3-0.9,1.9-0.8c0.6,0.1,1.1,0.6,1.5,1.4l1.3,2.9c0.6,1.3,0.4,2.5-0.8,3.4
				l-5.8,4.6l-3.1,2.3l0,0.1c1.6-0.4,2.9-0.7,3.7-0.9l7.2-1.5c1.5-0.2,2.5,0.3,3.1,1.7l1.4,3c0.4,0.8,0.4,1.5,0.1,2.1
				c-0.3,0.6-0.9,0.9-1.8,1l-15.6,1.8c-1.4,0.2-2.5-0.4-3.1-1.7l-2.3-5.1C81.2,339.3,81.4,338.1,82.5,337.1z"/>
		</g>
		<g class="st10">
			<path class="st11" d="M92.5,350.2c1.3-0.8,2.6-0.9,4.1-0.5c2.6,0.8,4.9,3,7.1,6.6l0.2,0.3l0.6-0.3c0.7-0.4,0.7-1.2-0.1-2.5
				c-0.5-0.8-1.3-1.6-2.3-2.4c-1.4-1-1.6-2.2-0.8-3.5l0.7-1.1c1-1.4,2.1-1.7,3.4-0.8c2,1.4,3.6,3.1,4.8,5.1c1.5,2.5,2,4.8,1.6,7
				c-0.4,2.2-1.7,4-3.9,5.3l-8.2,5c-1.4,0.9-2.6,0.6-3.4-0.9l-1.2-1.9c-0.8-1.3-0.5-2.5,1-3.5l0-0.1c-2.5-0.1-4.3-1.1-5.6-3.2
				c-1-1.7-1.3-3.3-0.9-4.9C90.1,352.3,91,351.1,92.5,350.2z M96.8,356.1c-0.3,0.2-0.5,0.5-0.6,0.8c-0.1,0.4,0,0.8,0.3,1.2
				c0.4,0.6,0.9,1,1.6,1.2c0.7,0.2,1.3,0.1,2-0.3l0.3-0.2l-0.2-0.4c-0.6-1-1.2-1.7-1.8-2.1C97.8,355.9,97.3,355.8,96.8,356.1z"/>
		</g>
		<g class="st10">
			<path class="st11" d="M106.5,365.2c2.4-1.9,4.9-2.7,7.5-2.6c2.6,0.2,4.7,1.4,6.5,3.7c0.6,0.8,1.1,1.6,1.4,2.4
				c0.3,0.8,0.4,1.4,0.3,1.8l-0.1,0.5l0,0.1c0.1-0.1,0.4-0.4,0.8-0.7l4.2-3.3c1.3-1,2.5-0.9,3.5,0.5l1.8,2.4c1,1.3,0.9,2.5-0.4,3.5
				L114,387.2c-1.3,1-2.5,0.9-3.5-0.4l-1.5-1.9c-1-1.2-0.8-2.4,0.4-3.5l0,0c-2.1,0.4-4-0.5-5.7-2.6c-1.6-2.1-2.2-4.4-1.6-6.9
				C102.6,369.3,104.1,367.1,106.5,365.2z M114.1,370.6c-0.9-0.1-1.8,0.3-2.7,1c-0.9,0.7-1.5,1.5-1.7,2.4c-0.2,0.9,0,1.7,0.5,2.4
				c0.5,0.7,1.3,1.1,2.1,1.1c0.9,0.1,1.8-0.3,2.7-1c0.9-0.7,1.5-1.5,1.7-2.4c0.2-0.9,0-1.7-0.5-2.4
				C115.7,371.1,115,370.7,114.1,370.6z"/>
		</g>
		<g class="st10">
			<path class="st11" d="M120.4,383.5c2.2-2.2,4.8-3.2,7.7-3c2.9,0.2,5.6,1.4,7.9,3.8c2.3,2.4,3.6,5,3.8,7.9c0.2,3-0.8,5.5-3,7.7
				c-2.2,2.2-4.7,3.1-7.7,2.9c-2.9-0.2-5.5-1.5-7.8-3.8c-2.3-2.3-3.6-4.9-3.8-7.9C117.2,388.2,118.2,385.6,120.4,383.5z
				 M126.1,389.2c-0.8,0.8-1.2,1.7-1.2,2.6c0,0.9,0.3,1.8,1,2.5c0.7,0.7,1.5,1.1,2.5,1.1c0.9,0,1.8-0.4,2.6-1.2
				c0.8-0.8,1.3-1.7,1.3-2.7c0-1-0.3-1.8-1-2.5c-0.7-0.7-1.5-1-2.5-1C127.9,387.9,127,388.4,126.1,389.2z"/>
		</g>
		<g class="st10">
			<path class="st11" d="M136.1,417.7l1.3-0.8c1.1-0.7,2.1-0.6,2.9,0.2c0.4,0.4,0.6,0.6,0.8,0.7c0.4,0.3,0.9,0.4,1.5,0.4
				c0.6,0,1.1-0.2,1.5-0.5l0.3-0.2l3.8-17.7c0.2-0.9,0.6-1.5,1.2-1.7c0.6-0.2,1.3-0.1,2.1,0.5l3,2.2c1.3,0.9,1.6,2,1.1,3.4l-2.1,5.3
				l-1.7,3.4l0.1,0c0.4-0.4,0.8-0.8,1.1-1.1c0.4-0.4,0.7-0.7,1-1c0.3-0.3,0.5-0.5,0.6-0.6l3.9-3.8c1.1-1,2.2-1,3.5-0.1l2.8,2
				c0.7,0.5,1.1,1.1,1.1,1.8c0,0.6-0.4,1.2-1.1,1.8l-16.2,11.2c-1.4,1-2.8,1.6-4.3,1.8c-2.5,0.4-4.8-0.2-7-1.8c-0.6-0.5-1.3-1.1-2-2
				c-0.5-0.6-0.6-1.3-0.4-1.9C134.9,418.6,135.3,418.1,136.1,417.7z"/>
		</g>
		<g class="st10">
			<path class="st11" d="M167.9,422c0.8-1.6,1.9-2.9,3.3-3.9c1.5-1,3.3-1.6,5.3-1.7c2-0.1,4.1,0.4,6.2,1.4c2.2,1.1,3.9,2.6,4.9,4.3
				c0.8,1.3,0.5,2.4-1,3.3l-1.2,0.7c-1.3,0.7-2.4,0.5-3.4-0.8c-0.4-0.5-1-0.9-1.8-1.3c-1.1-0.5-2.1-0.6-3-0.3
				c-0.9,0.3-1.6,1-2.1,1.9c-0.4,0.8-0.5,1.8-0.3,2.9c0.2,1,0.9,1.9,2.2,2.5c0.8,0.4,1.8,0.6,3,0.6c1.8,0,2.6,0.8,2.7,2.3l0,1.3
				c0,1.6-0.8,2.6-2.2,2.8c-2.5,0.2-4.8-0.3-7.2-1.5c-3.2-1.6-5.2-3.8-6.1-6.5C166.4,427.2,166.6,424.5,167.9,422z"/>
		</g>
		<g class="st10">
			<path class="st11" d="M184.9,430.9c1.1-2.9,3-4.9,5.7-6c2.7-1.1,5.6-1,8.7,0.1c3.1,1.2,5.4,3,6.7,5.6c1.4,2.6,1.6,5.4,0.5,8.3
				c-1.1,2.9-3,4.8-5.7,5.9c-2.7,1-5.6,1-8.7-0.2c-3.1-1.1-5.3-3-6.8-5.5C184,436.5,183.9,433.7,184.9,430.9z M192.5,433.7
				c-0.4,1.1-0.4,2,0,2.9c0.4,0.9,1,1.4,2,1.8c0.9,0.3,1.8,0.3,2.7-0.1c0.9-0.4,1.5-1.1,1.9-2.2c0.4-1.1,0.4-2.1,0-3
				c-0.4-0.9-1-1.5-2-1.9c-0.9-0.3-1.8-0.3-2.7,0.2C193.6,431.8,192.9,432.6,192.5,433.7z"/>
		</g>
		<g class="st10">
			<path class="st11" d="M205.9,446.1l3.7-14.5c0.4-1.6,1.4-2.2,3-1.8l2.6,0.7c1.6,0.4,2.3,1.4,1.8,3l-0.2,0.7l-0.3,1.1l0.1,0
				c0.6-1,1.5-1.8,2.6-2.5c1.2-0.8,2.3-1,3.3-0.7c0.7,0.2,1.2,0.5,1.4,1c0.2,0.5,0.2,1.1,0,2l-0.6,2.5c-0.4,1.6-1.4,2.3-3,1.9
				c-1.3-0.3-2.4-0.2-3.4,0.5c-0.9,0.7-1.6,1.8-2,3.2l-1.2,4.9c-0.4,1.6-1.4,2.2-3.1,1.8l-2.9-0.7
				C206,448.7,205.4,447.7,205.9,446.1z"/>
		</g>
		<g class="st10">
			<path class="st11" d="M223.9,445.7l1-6.2l-0.2,0c-1.6-0.3-2.3-1.2-2-2.9l0.2-1.2c0.3-1.6,1.2-2.3,2.8-2.1l0.5,0.1l0.5-3.2
				c0.3-1.6,1.2-2.3,2.9-2.1l2.7,0.4c1.7,0.3,2.4,1.2,2.1,2.9l-0.5,3.2l1.4,0.2c1.7,0.3,2.4,1.2,2.1,2.9l-0.2,1.2
				c-0.3,1.6-1.2,2.3-2.8,2.1l-1.4-0.2l-0.8,4.7c-0.2,1,0.3,1.7,1.3,2.1c1,0.3,1.6,0.6,1.8,1c0.3,0.3,0.3,0.9,0.2,1.7l-0.4,2.1
				c-0.1,0.9-0.5,1.5-1.1,1.8c-0.6,0.3-1.4,0.3-2.5,0.2c-1.7-0.3-3.4-1-5.1-2.1c-1-0.7-1.7-1.5-2.1-2.7
				C223.8,448.4,223.6,447.1,223.9,445.7z"/>
		</g>
		<g class="st10">
			<path class="st11" d="M236.7,445c0.2-3,1.3-5.4,3.3-7.2c2-1.9,4.6-2.7,7.9-2.5c2.9,0.2,5.2,1.3,6.8,3.2c1.6,1.9,2.3,4.1,2.1,6.8
				c0,0.7-0.3,1.2-0.9,1.7c-0.6,0.5-1.2,0.7-1.9,0.7l-9.3-0.6c0.5,1.6,1.6,2.4,3.6,2.6c1.1,0.1,2.1-0.1,3.1-0.4
				c1.6-0.6,2.7-0.2,3.3,1.2l0.5,1.2c0.7,1.6,0.3,2.7-1.1,3.4c-2.2,0.9-4.5,1.3-7,1.1c-1.8-0.1-3.4-0.5-4.8-1.3
				c-1.4-0.7-2.5-1.6-3.3-2.7c-0.8-1.1-1.4-2.2-1.8-3.5C236.8,447.5,236.6,446.2,236.7,445z M245,443l4.1,0.3c0.1-0.7,0-1.3-0.3-1.8
				c-0.3-0.5-0.8-0.8-1.3-0.8C246.1,440.6,245.3,441.4,245,443z"/>
		</g>
		<g class="st10">
			<path class="st11" d="M268.3,461.3l-2.2-22.5c-0.2-1.7,0.6-2.6,2.3-2.7l2.1-0.2c0.8-0.1,1.4,0.1,1.9,0.4c0.5,0.3,0.8,0.8,0.8,1.4
				l0.1,0.5l0.1,0c0,0,0.1-0.1,0.1-0.2c0-0.1,0.1-0.2,0.2-0.4c0.1-0.1,0.2-0.3,0.4-0.6c1.1-1.4,2.7-2.3,4.7-2.5
				c2.7-0.3,5,0.5,6.8,2.3c1.8,1.8,2.9,4.2,3.2,7.3c0.3,3.1-0.3,5.7-1.9,7.7c-1.6,2.1-3.7,3.3-6.4,3.5c-1,0.1-1.9,0-2.7-0.2
				c-0.8-0.2-1.4-0.5-1.7-0.9l-0.4-0.5l-0.1,0c0.1,0.8,0.2,1.4,0.3,2.1l0.5,4.7c0.2,1.7-0.6,2.6-2.2,2.7l-3,0.3
				C269.4,463.7,268.5,463,268.3,461.3z M274.6,445.6c0.1,1,0.5,1.9,1.1,2.5c0.6,0.6,1.4,0.9,2.4,0.8c0.9-0.1,1.6-0.5,2.1-1.2
				c0.5-0.7,0.7-1.6,0.6-2.8c-0.1-1.2-0.5-2.1-1.1-2.7c-0.6-0.7-1.4-0.9-2.3-0.9c-0.9,0.1-1.6,0.5-2.1,1.2
				C274.7,443.4,274.5,444.4,274.6,445.6z"/>
		</g>
		<g class="st10">
			<path class="st11" d="M289.6,448.2c-0.3-1.5,0-2.8,0.9-4c1.6-2.2,4.4-3.7,8.5-4.6l0.4-0.1l-0.1-0.6c-0.2-0.8-1-1-2.4-0.7
				c-1,0.2-1.9,0.7-3,1.4c-1.4,1-2.6,0.8-3.5-0.4l-0.8-1c-1-1.4-0.9-2.5,0.3-3.5c1.9-1.4,4.1-2.4,6.4-2.9c2.8-0.6,5.2-0.4,7.2,0.7
				c2,1.1,3.2,2.9,3.8,5.4l2,9.4c0.4,1.6-0.3,2.6-1.9,3l-2.2,0.5c-1.5,0.3-2.5-0.4-3-2.1l-0.1,0c-0.9,2.3-2.5,3.7-4.8,4.2
				c-1.9,0.4-3.6,0.2-5-0.7C290.8,451.2,290,449.9,289.6,448.2z M296.6,446c0.1,0.3,0.3,0.6,0.6,0.8c0.3,0.2,0.7,0.2,1.2,0.1
				c0.7-0.2,1.3-0.5,1.7-1.1c0.4-0.6,0.5-1.3,0.3-2l-0.1-0.4l-0.4,0.1c-1.1,0.2-2,0.6-2.6,1C296.7,445,296.4,445.5,296.6,446z"/>
		</g>
		<g class="st10">
			<path class="st11" d="M311.5,446.5l-4.5-14.2c-0.5-1.6,0-2.6,1.6-3.1l2.5-0.8c1.6-0.5,2.7,0,3.2,1.6l0.2,0.7l0.3,1.1l0.1,0
				c0-1.2,0.3-2.3,0.9-3.5c0.6-1.3,1.4-2.1,2.4-2.4c0.7-0.2,1.3-0.2,1.7,0.1c0.4,0.3,0.8,0.8,1,1.7l0.8,2.5c0.5,1.6,0,2.7-1.6,3.2
				c-1.3,0.4-2.2,1.1-2.6,2.2c-0.4,1.1-0.4,2.3,0.1,3.8l1.5,4.8c0.5,1.6,0,2.6-1.7,3.1l-2.9,0.9C313.1,448.6,312,448.1,311.5,446.5z
				"/>
		</g>
		<g class="st10">
			<path class="st11" d="M324.6,439.1c-0.6-1.4-0.6-2.7,0.1-4.1c1.2-2.4,3.6-4.5,7.5-6.1l0.4-0.2l-0.3-0.6c-0.3-0.8-1.1-0.8-2.5-0.3
				c-0.9,0.4-1.8,1-2.6,1.9c-1.2,1.2-2.4,1.3-3.6,0.3l-0.9-0.8c-1.3-1.2-1.4-2.3-0.4-3.5c1.6-1.8,3.5-3.1,5.7-4.1
				c2.6-1.1,5-1.3,7.2-0.6c2.1,0.7,3.7,2.2,4.7,4.6l3.8,8.8c0.7,1.5,0.2,2.6-1.3,3.3l-2.1,0.9c-1.4,0.6-2.5,0.1-3.3-1.5l-0.1,0
				c-0.4,2.4-1.7,4.1-3.9,5.1c-1.8,0.8-3.5,0.8-5,0.2C326.4,441.8,325.3,440.7,324.6,439.1z M331,435.6c0.1,0.3,0.4,0.6,0.7,0.7
				c0.3,0.1,0.8,0.1,1.2-0.1c0.7-0.3,1.2-0.8,1.4-1.4c0.3-0.7,0.2-1.3,0-2l-0.2-0.4l-0.4,0.2c-1.1,0.5-1.8,1-2.4,1.5
				C330.9,434.6,330.8,435.1,331,435.6z"/>
		</g>
		<g class="st10">
			<path class="st11" d="M373.4,416.3l-5.2-7.7c-0.5-0.8-1.1-0.9-1.8-0.5c-0.9,0.6-1.1,1.4-0.7,2.6c0.3,0.8,0.8,1.8,1.6,2.9l3.1,4.6
				c0.9,1.4,0.7,2.5-0.7,3.5l-2.5,1.7c-1.4,0.9-2.5,0.7-3.5-0.7l-5.2-7.7c-0.5-0.8-1.1-0.9-1.8-0.5c-0.9,0.6-1.1,1.4-0.7,2.6
				c0.3,0.8,0.8,1.8,1.6,2.9l3.1,4.6c0.9,1.4,0.7,2.5-0.7,3.5l-2.5,1.7c-1.4,0.9-2.5,0.7-3.5-0.7l-8.4-12.4
				c-0.9-1.4-0.7-2.5,0.7-3.5l2.2-1.5c0.6-0.4,1.2-0.5,1.9-0.4c0.6,0.2,1.2,0.6,1.7,1.3l0.1,0c-0.1-2.5,0.8-4.5,2.7-5.8
				c1-0.7,2-1.1,3.2-1.2c1.1-0.1,2.1,0.2,3.1,0.8l0.1,0c-0.1-1,0.1-2.1,0.7-3.2c0.6-1.1,1.4-2.1,2.5-2.8c1.5-1,3.1-1.4,4.8-1.2
				c1.6,0.3,3.2,1.5,4.7,3.7l5.9,8.7c0.9,1.4,0.7,2.5-0.7,3.5l-2.5,1.7C375.5,417.8,374.4,417.6,373.4,416.3z"/>
		</g>
		<g class="st10">
			<path class="st11" d="M378.7,408.3c-1-1.1-1.4-2.4-1.3-3.9c0.3-2.7,2-5.4,5.1-8.2l0.3-0.3l-0.4-0.5c-0.6-0.6-1.4-0.4-2.4,0.5
				c-0.7,0.7-1.3,1.5-1.9,2.7c-0.7,1.5-1.8,2-3.3,1.4l-1.2-0.5c-1.6-0.7-2.1-1.7-1.5-3.2c1-2.2,2.3-4.1,4.1-5.7
				c2.1-1.9,4.3-2.9,6.6-2.9c2.3,0,4.2,0.9,6,2.8l6.5,7.1c1.1,1.2,1.1,2.4-0.2,3.5l-1.7,1.5c-1.2,1.1-2.4,1-3.6-0.3l-0.1,0.1
				c0.4,2.4-0.3,4.5-2.1,6.1c-1.4,1.3-3,1.9-4.7,1.8C381.3,410.3,379.9,409.6,378.7,408.3z M383.6,402.9c0.2,0.3,0.5,0.4,0.9,0.4
				c0.4,0,0.7-0.2,1.1-0.5c0.5-0.5,0.8-1.1,0.9-1.8c0-0.7-0.2-1.3-0.7-1.9l-0.3-0.3l-0.3,0.3c-0.9,0.8-1.4,1.5-1.7,2.2
				C383.2,401.9,383.3,402.5,383.6,402.9z"/>
		</g>
		<g class="st10">
			<path class="st11" d="M398.9,395.6c-1.6,0.5-2.6-0.2-3-1.9l-0.3-1.2c-0.4-1.3,0.2-2.4,1.7-3.1c0.9-0.4,1.6-0.9,2.1-1.3
				c0.5-0.4,0.9-0.8,1-1.1c0.1-0.3,0.1-0.6-0.2-0.8c-0.2-0.2-1.1,0.2-2.6,1.2c-0.2,0.1-0.4,0.2-0.5,0.3c-3.2,2.4-5.9,2.5-8.3,0.3
				c-1.6-1.4-2.3-3.1-2.1-5.1c0.2-2,1.2-3.9,2.9-5.8c1.6-1.8,3.2-3,4.8-3.6c1.4-0.6,2.5,0,3.1,1.6l0.4,1.1c0.1,0.2,0.1,0.4,0.2,0.5
				c0,0.1,0.1,0.3,0.1,0.6c0,0.3,0,0.5-0.1,0.7c-0.1,0.2-0.3,0.4-0.5,0.7c-0.2,0.3-0.6,0.5-1,0.7c-1.4,0.8-2.2,1.4-2.6,1.9
				c-0.5,0.5-0.5,1-0.2,1.3c0.2,0.2,0.6,0.1,1.1-0.2c0.5-0.3,1.2-0.8,1.9-1.3c0.7-0.5,1.5-1,2.4-1.4c0.8-0.4,1.8-0.6,2.8-0.4
				c1,0.1,2,0.6,3,1.5c1.5,1.4,2.3,3.1,2.2,5.1c-0.1,2-1,4-2.7,5.9c-0.9,1-1.9,1.8-2.9,2.5C400.6,394.9,399.6,395.3,398.9,395.6z"/>
		</g>
		<g class="st10">
			<path class="st11" d="M402.1,378.9c-1.4-1.1-2.5-2.4-3.3-3.9c-0.8-1.7-1-3.5-0.8-5.5c0.2-2,1.1-4,2.4-5.9c1.5-2,3.2-3.4,5.1-4.1
				c1.4-0.6,2.4-0.1,3.1,1.6l0.5,1.3c0.5,1.4,0.1,2.4-1.4,3.2c-0.6,0.3-1.1,0.8-1.6,1.6c-0.7,1-1,1.9-0.8,2.9c0.2,1,0.7,1.7,1.5,2.3
				c0.8,0.6,1.7,0.8,2.8,0.8c1.1,0,2-0.6,2.8-1.7c0.5-0.7,0.9-1.7,1.1-2.9c0.3-1.7,1.2-2.5,2.7-2.2l1.3,0.2c1.6,0.3,2.4,1.2,2.4,2.6
				c-0.2,2.4-1.1,4.7-2.7,6.8c-2.1,2.9-4.6,4.5-7.4,4.9C407,381.2,404.4,380.6,402.1,378.9z"/>
		</g>
		<g class="st10">
			<path class="st11" d="M413.7,363.6c-2.7-1.5-4.3-3.8-4.9-6.7c-0.6-2.9-0.1-5.7,1.6-8.6c1.7-2.9,3.9-4.8,6.6-5.7
				c2.8-0.9,5.6-0.6,8.3,0.9c2.7,1.5,4.3,3.7,4.8,6.6c0.5,2.9,0,5.7-1.6,8.5c-1.6,2.8-3.8,4.7-6.6,5.7
				C419.1,365.4,416.4,365.1,413.7,363.6z M417.8,356.5c1,0.6,1.9,0.7,2.9,0.5c0.9-0.2,1.6-0.8,2.1-1.6c0.5-0.9,0.6-1.8,0.4-2.7
				c-0.2-0.9-0.9-1.7-1.9-2.2c-1-0.6-2-0.8-3-0.6c-1,0.2-1.7,0.8-2.2,1.6c-0.5,0.9-0.6,1.8-0.3,2.7
				C416.1,355.2,416.7,355.9,417.8,356.5z"/>
		</g>
		<g class="st10">
			<path class="st11" d="M432.6,342.7l-5.7-2.5l-0.1,0.2c-0.7,1.5-1.8,1.9-3.3,1.2l-1.1-0.5c-1.5-0.7-1.9-1.8-1.3-3.3l0.2-0.5
				l-3-1.3c-1.5-0.7-1.9-1.8-1.3-3.3l1.1-2.5c0.7-1.5,1.8-2,3.3-1.3l3,1.3l0.6-1.3c0.7-1.5,1.8-2,3.3-1.3l1.1,0.5
				c1.5,0.7,1.9,1.8,1.3,3.3l-0.6,1.3l4.4,1.9c1,0.4,1.7,0.2,2.3-0.8c0.5-0.8,1-1.4,1.4-1.5c0.4-0.2,1-0.1,1.7,0.2l2,0.9
				c0.8,0.4,1.3,0.9,1.4,1.5c0.1,0.6,0,1.5-0.5,2.5c-0.7,1.5-1.8,3-3.3,4.4c-0.9,0.8-1.9,1.2-3.1,1.4
				C435.1,343.5,433.9,343.2,432.6,342.7z"/>
		</g>
		<g class="st10">
			<path class="st11" d="M435.3,331c-1.4-0.5-2.4-1.4-3-2.8c-1.1-2.5-0.9-5.7,0.4-9.7l0.1-0.4l-0.6-0.2c-0.8-0.3-1.4,0.3-1.8,1.6
				c-0.3,0.9-0.4,2-0.3,3.3c0.1,1.7-0.6,2.6-2.2,2.8l-1.3,0.1c-1.7,0.2-2.7-0.5-2.8-2c-0.2-2.4,0-4.7,0.7-7c0.9-2.7,2.3-4.6,4.3-5.8
				c1.9-1.1,4.1-1.3,6.6-0.5l9.1,3c1.6,0.5,2.1,1.6,1.6,3.2l-0.7,2.1c-0.5,1.5-1.6,2-3.3,1.5l0,0.1c1.5,1.9,1.9,4,1.2,6.3
				c-0.6,1.8-1.7,3.1-3.2,3.9C438.5,331.5,437,331.5,435.3,331z M436.9,323.9c0.3,0.1,0.7,0.1,1-0.1c0.3-0.2,0.6-0.5,0.7-1
				c0.2-0.7,0.2-1.4-0.1-2c-0.3-0.6-0.8-1.1-1.5-1.3l-0.4-0.1l-0.1,0.4c-0.4,1.1-0.5,2-0.5,2.7C436.2,323.3,436.4,323.7,436.9,323.9
				z"/>
		</g>
		<g class="st10">
			<path class="st11" d="M446.6,310c-1.1,1.2-2.3,1.1-3.6-0.1l-0.9-0.9c-1-1-1-2.2,0-3.5c0.6-0.8,1-1.5,1.2-2.2
				c0.3-0.6,0.4-1.1,0.4-1.5c0-0.4-0.2-0.6-0.5-0.7c-0.3-0.1-0.9,0.7-1.7,2.3c-0.1,0.2-0.2,0.4-0.3,0.5c-1.6,3.6-4,5-7.1,4.3
				c-2.1-0.5-3.5-1.6-4.3-3.5c-0.8-1.9-0.9-4-0.4-6.5c0.5-2.3,1.3-4.1,2.4-5.5c1-1.2,2.1-1.2,3.5-0.2l0.9,0.8
				c0.2,0.1,0.3,0.3,0.4,0.3c0.1,0.1,0.2,0.2,0.4,0.5c0.1,0.2,0.2,0.5,0.2,0.7c0,0.2,0,0.5-0.1,0.8c-0.1,0.4-0.2,0.7-0.5,1.1
				c-0.8,1.4-1.2,2.3-1.4,2.9c-0.2,0.7,0,1.1,0.5,1.2c0.3,0.1,0.6-0.2,0.9-0.8c0.3-0.6,0.6-1.2,1-2.1c0.4-0.8,0.8-1.6,1.4-2.4
				c0.5-0.8,1.3-1.4,2.3-1.8c1-0.4,2.1-0.5,3.3-0.2c2,0.5,3.5,1.6,4.4,3.4c0.9,1.8,1.1,4,0.5,6.5c-0.3,1.3-0.7,2.5-1.3,3.6
				C447.8,308.6,447.2,309.5,446.6,310z"/>
		</g>
	</g>
	<g>
		<g class="st10">
			<path class="st11" d="M106.9,181.9l-27.6-20.3c-2-1.5-2.3-3.3-0.8-5.3l6.8-9.2c4-5.4,8.6-8.6,13.9-9.6c5.3-1,10.6,0.5,15.8,4.3
				c5.2,3.8,8.2,8.5,9,13.9c0.7,5.3-0.9,10.7-4.9,16.2l-6.8,9.2C110.7,183.1,108.9,183.4,106.9,181.9z M91.9,155.7l16.8,12.4
				l1.5-2.1c1.8-2.5,2.5-4.9,2-7.3c-0.5-2.4-2.1-4.6-4.8-6.6c-2.7-2-5.2-2.8-7.7-2.5c-2.4,0.3-4.5,1.7-6.3,4.1L91.9,155.7z"/>
		</g>
		<g class="st10">
			<path class="st11" d="M133.2,148.3l-22.7-25.7c-1.7-1.9-1.5-3.7,0.4-5.4l14.6-12.9c1.9-1.7,3.7-1.6,5.3,0.3l1.9,2.2
				c1.7,1.9,1.6,3.7-0.3,5.3l-8.3,7.3l3.4,3.8l5.9-5.2c1.9-1.7,3.7-1.6,5.4,0.3l1.9,2.2c1.7,1.9,1.5,3.7-0.4,5.4l-5.9,5.2l3.5,4
				l8.8-7.8c1.9-1.7,3.7-1.6,5.4,0.3l1.9,2.2c1.7,1.9,1.5,3.7-0.4,5.4l-15.1,13.4C136.6,150.3,134.8,150.2,133.2,148.3z"/>
		</g>
		<g class="st10">
			<path class="st11" d="M171,118.7l-14.6-31c-1.1-2.3-0.5-4,1.9-5.1l13.1-6.2c3.8-1.8,7.4-1.9,10.9-0.4c3.5,1.4,6.2,4.1,8,8
				c1.9,4,2.3,7.8,1.2,11.5c-1.1,3.7-3.5,6.4-7.3,8.1l-5.5,2.6l3.4,7.2c1.1,2.3,0.5,4-1.8,5l-4.2,2C173.7,121.6,172.1,121,171,118.7
				z M170.3,88.5l3.9,8.3l3.1-1.5c2.5-1.2,3-3.1,1.7-5.9c-0.6-1.3-1.4-2.1-2.3-2.6c-0.9-0.4-2-0.4-3.1,0.1L170.3,88.5z"/>
		</g>
		<g class="st10">
			<path class="st11" d="M204.7,103.8l-8.1-33.3c-0.6-2.4,0.3-4,2.8-4.6l18.9-4.6c2.4-0.6,4,0.3,4.6,2.8l0.7,2.8
				c0.6,2.4-0.3,4-2.8,4.6l-10.7,2.6l1.2,4.9l7.7-1.9c2.5-0.6,4,0.3,4.6,2.8l0.7,2.8c0.6,2.4-0.3,4-2.8,4.6l-7.7,1.9l1.3,5.2
				l11.4-2.8c2.5-0.6,4,0.3,4.6,2.8l0.7,2.8c0.6,2.4-0.3,4-2.8,4.6l-19.6,4.8C206.9,107.2,205.3,106.3,204.7,103.8z"/>
		</g>
		<g class="st10">
			<path class="st11" d="M237,96.6l-1.8-34.2c-0.1-2.5,1.1-3.8,3.6-4l4.6-0.2c2.5-0.1,3.8,1.1,4,3.6l1.4,27.5l12.5-0.7
				c2.6-0.1,3.9,1.1,4,3.6l0.2,2.9c0.1,2.5-1.1,3.8-3.6,4l-20.9,1.1C238.5,100.4,237.2,99.2,237,96.6z"/>
		</g>
		<g class="st10">
			<path class="st11" d="M271.5,83.4l3.6-22.1c0.4-2.5,1.8-3.5,4.3-3.1l4.7,0.8c2.5,0.4,3.5,1.8,3.1,4.3l-3.6,22.1
				c-0.3,1.7,0,3,0.9,4.1c0.9,1,2.2,1.7,3.9,2c1.8,0.3,3.2,0.1,4.4-0.7c1.2-0.7,1.9-1.9,2.1-3.5l3.6-22.2c0.4-2.5,1.8-3.5,4.3-3.1
				l4.6,0.7c2.5,0.4,3.5,1.8,3.1,4.3L307,89.1c-0.8,4.7-3,8.4-6.8,10.9c-3.7,2.5-8.2,3.3-13.5,2.4c-5.3-0.9-9.4-3-12.2-6.6
				C271.8,92.3,270.8,88.2,271.5,83.4z"/>
		</g>
		<g class="st10">
			<path class="st11" d="M331.4,107.6l16.5-30.1c1.2-2.2,2.9-2.7,5.2-1.5l10.1,5.5c5.9,3.2,9.7,7.4,11.3,12.5
				c1.7,5.1,0.9,10.5-2.2,16.3c-3.1,5.7-7.3,9.3-12.6,10.7c-5.2,1.4-10.7,0.5-16.7-2.8l-10.1-5.5
				C330.7,111.6,330.2,109.8,331.4,107.6z M355.4,89.3l-10,18.3l2.3,1.3c2.7,1.5,5.2,1.8,7.5,1c2.3-0.8,4.3-2.7,5.9-5.7
				c1.6-2.9,2.1-5.6,1.5-7.9c-0.6-2.4-2.2-4.3-4.9-5.7L355.4,89.3z"/>
		</g>
		<g class="st10">
			<path class="st11" d="M379.4,115c4.2-4.4,9.2-6.7,14.9-6.9c5.8-0.1,11.1,2.1,15.8,6.5c4.7,4.4,7.2,9.6,7.4,15.4
				c0.2,5.8-1.8,10.9-6,15.3c-4.3,4.6-9.4,6.9-15.2,7.1c-5.9,0.2-11.2-2-15.9-6.4c-4.7-4.5-7.1-9.6-7.3-15.5
				C373,124.7,375.2,119.5,379.4,115z M388.7,123.7c-2.1,2.3-3.3,4.7-3.4,7.4c-0.1,2.7,0.8,4.9,2.8,6.8c2,1.9,4.3,2.7,7,2.4
				c2.7-0.2,5.1-1.5,7.2-3.7c2-2.1,3-4.5,3.1-7.1c0.1-2.6-0.9-4.9-2.9-6.8c-2-1.9-4.3-2.7-6.9-2.5
				C393,120.4,390.7,121.5,388.7,123.7z"/>
		</g>
		<g class="st10">
			<path class="st11" d="M403.1,164.6c0.2-2.4,1.5-3.5,4-3.5l3.9,0.1c2.2,0,3.4,1.3,3.6,3.9c0,0,0,0.1,0,0.3c0,0.1,0,0.4,0,0.6
				c0,0.3,0.1,0.6,0.1,0.8c0.2,2.2,0.7,4,1.6,5.4c1.1,1.7,2.2,2.2,3.2,1.6c0.6-0.4,0.9-1,0.9-1.9c0-0.9-0.2-2.2-0.6-4.1
				c-0.4-1.8-0.7-3.3-0.8-4.2c-1.1-6.4,0.6-11,5-13.9c3.3-2.1,6.8-2.7,10.5-1.6c3.7,1.1,6.8,3.5,9.2,7.3c1.2,1.8,2.1,3.8,2.8,5.9
				c0.7,2.1,1,4,1,5.5c-0.1,2.3-1.4,3.6-3.7,3.9l-3.7,0.4c-1.3,0.2-2.3-0.1-3-0.9c-0.7-0.7-1-1.6-0.9-2.7c0-0.6-0.1-1.5-0.4-2.7
				c-0.3-1.4-0.8-2.6-1.4-3.5c-1.1-1.8-2.3-2.3-3.3-1.6c-0.7,0.4-1,1.3-0.9,2.5c0,1.2,0.3,2.9,0.9,5c0.4,1.9,0.8,3.7,0.9,5.6
				c0.3,2,0,4.1-0.9,6c-0.9,2-2.3,3.6-4.3,4.9c-3.2,2.1-6.6,2.7-10.3,1.8c-3.7-0.9-6.8-3.3-9.4-7.3c-1.5-2.3-2.6-4.7-3.2-7.2
				C403.2,168.4,403,166.2,403.1,164.6z"/>
		</g>
	</g>
	<g>
		<g>
			<g>
				<defs>
					<path id="SVGID_15_" d="M324.8,304.1c-0.8-1-1.5-2-1.9-2.9c-8.3-17.8-31.1-38.8-68-39.2h-1.4c-36.3,0-58.9,19.8-68,38.4
						c-0.3,0.6-1,1.5-1.7,2.3c-0.8,1-1.7,2.1-2.4,3.3c-7.7,11.9-11.5,25.3-10.9,37.6c0.6,13.2,6.2,23.7,15.5,29.8
						c3.8,2.4,7.9,3.6,12.2,3.6c8.8,0,17-5,26.3-10.7c5.9-3.7,12.1-7.4,19-10.4c0.8-0.2,4-0.6,9.1-0.6c6.2,0,10.5,0.6,11.4,0.8
						c6.6,2.9,12.6,6.9,18.3,10.6c8.7,5.7,16.9,11.2,25.8,11.2c3.8,0,7.6-1,11.1-3c19.3-10.9,22.9-41.1,8.1-67
						C326.5,306.4,325.7,305.3,324.8,304.1z"/>
				</defs>
				<clipPath id="SVGID_14_">
					<use xlink:href="#SVGID_15_"  style="overflow:visible;"/>
				</clipPath>
				<linearGradient id="SVGID_16_" gradientUnits="userSpaceOnUse" x1="82.8157" y1="401.5717" x2="437.4979" y2="103.9578">
					<stop  offset="0" style="stop-color:#FF00A5"/>
					<stop  offset="7.164891e-02" style="stop-color:#EF25BD"/>
					<stop  offset="0.1571" style="stop-color:#DF4BD4"/>
					<stop  offset="0.2424" style="stop-color:#D268E7"/>
					<stop  offset="0.3265" style="stop-color:#C97DF4"/>
					<stop  offset="0.4089" style="stop-color:#C48AFC"/>
					<stop  offset="0.4874" style="stop-color:#C28EFF"/>
					<stop  offset="0.5472" style="stop-color:#BC90FF"/>
					<stop  offset="0.6232" style="stop-color:#AD94FE"/>
					<stop  offset="0.7079" style="stop-color:#939CFC"/>
					<stop  offset="0.799" style="stop-color:#6EA7F9"/>
					<stop  offset="0.8952" style="stop-color:#40B5F6"/>
					<stop  offset="0.9943" style="stop-color:#07C6F2"/>
					<stop  offset="1" style="stop-color:#04C7F2"/>
				</linearGradient>
				<circle style="clip-path:url(#SVGID_14_);fill:url(#SVGID_16_);" cx="260.2" cy="252.8" r="231.5"/>
			</g>
		</g>
	</g>
</g>
</svg>
